%TF.GenerationSoftware,KiCad,Pcbnew,(6.0.5)*%
%TF.CreationDate,2023-04-14T11:36:58+02:00*%
%TF.ProjectId,keyboardbreakout2_framework,6b657962-6f61-4726-9462-7265616b6f75,rev?*%
%TF.SameCoordinates,Original*%
%TF.FileFunction,Legend,Bot*%
%TF.FilePolarity,Positive*%
%FSLAX46Y46*%
G04 Gerber Fmt 4.6, Leading zero omitted, Abs format (unit mm)*
G04 Created by KiCad (PCBNEW (6.0.5)) date 2023-04-14 11:36:58*
%MOMM*%
%LPD*%
G01*
G04 APERTURE LIST*
%ADD10C,0.120000*%
%ADD11R,1.700000X1.700000*%
%ADD12O,1.700000X1.700000*%
G04 APERTURE END LIST*
D10*
%TO.C,U1*%
X77800501Y-46500000D02*
G75*
G03*
X77800501Y-46500000I-381000J0D01*
G01*
%TO.C,G\u002A\u002A\u002A*%
G36*
X89513727Y-47180646D02*
G01*
X89265403Y-47180646D01*
X89265403Y-46932322D01*
X89513727Y-46932322D01*
X89513727Y-47180646D01*
G37*
G36*
X85135116Y-46694134D02*
G01*
X84886792Y-46694134D01*
X84886654Y-46575040D01*
X84886646Y-46568542D01*
X84886605Y-46524739D01*
X84886569Y-46475167D01*
X84886540Y-46423567D01*
X84886522Y-46373681D01*
X84886515Y-46329250D01*
X84886516Y-46322947D01*
X84886524Y-46277143D01*
X84886544Y-46226227D01*
X84886574Y-46174011D01*
X84886611Y-46124306D01*
X84886654Y-46080926D01*
X84886792Y-45959298D01*
X85135116Y-45959298D01*
X85135116Y-46694134D01*
G37*
G36*
X87810934Y-46689066D02*
G01*
X87810934Y-46445810D01*
X88054190Y-46445810D01*
X89270471Y-46445810D01*
X89270471Y-45229529D01*
X88054190Y-45229529D01*
X88054190Y-46445810D01*
X87810934Y-46445810D01*
X87810934Y-44986273D01*
X89513727Y-44986273D01*
X89513727Y-46689066D01*
X87810934Y-46689066D01*
G37*
G36*
X88297446Y-47666979D02*
G01*
X88174551Y-47668376D01*
X88150543Y-47668622D01*
X88118028Y-47668867D01*
X88089726Y-47668974D01*
X88067119Y-47668944D01*
X88051686Y-47668775D01*
X88044907Y-47668466D01*
X88042480Y-47668264D01*
X88030931Y-47667910D01*
X88011581Y-47667606D01*
X87985958Y-47667368D01*
X87955592Y-47667214D01*
X87922012Y-47667159D01*
X87805866Y-47667159D01*
X87805866Y-47418835D01*
X88297446Y-47418835D01*
X88297446Y-47666979D01*
G37*
G36*
X89513727Y-51072745D02*
G01*
X89265403Y-51072745D01*
X89265310Y-50953651D01*
X89265309Y-50951251D01*
X89265295Y-50927425D01*
X89265282Y-50894515D01*
X89265270Y-50853451D01*
X89265259Y-50805163D01*
X89265249Y-50750581D01*
X89265240Y-50690634D01*
X89265232Y-50626252D01*
X89265226Y-50558366D01*
X89265222Y-50487904D01*
X89265219Y-50415798D01*
X89265218Y-50342977D01*
X89265218Y-50333912D01*
X89265219Y-50261051D01*
X89265222Y-50188972D01*
X89265227Y-50118610D01*
X89265233Y-50050900D01*
X89265241Y-49986777D01*
X89265250Y-49927178D01*
X89265261Y-49873037D01*
X89265272Y-49825291D01*
X89265284Y-49784873D01*
X89265297Y-49752721D01*
X89265310Y-49729768D01*
X89265403Y-49608140D01*
X89513727Y-49608140D01*
X89513727Y-51072745D01*
G37*
G36*
X87810934Y-53013727D02*
G01*
X87810934Y-52770471D01*
X88054190Y-52770471D01*
X89270471Y-52770471D01*
X89270471Y-51554190D01*
X88054190Y-51554190D01*
X88054190Y-52770471D01*
X87810934Y-52770471D01*
X87810934Y-51310934D01*
X89513727Y-51310934D01*
X89513727Y-53013727D01*
X87810934Y-53013727D01*
G37*
G36*
X83189066Y-51559258D02*
G01*
X82940742Y-51559258D01*
X82940742Y-51310934D01*
X83189066Y-51310934D01*
X83189066Y-51559258D01*
G37*
G36*
X88054190Y-48153671D02*
G01*
X87805866Y-48153671D01*
X87805866Y-47905347D01*
X88054190Y-47905347D01*
X88054190Y-48153671D01*
G37*
G36*
X89027215Y-52527215D02*
G01*
X88297446Y-52527215D01*
X88297446Y-51797446D01*
X89027215Y-51797446D01*
X89027215Y-52527215D01*
G37*
G36*
X81486273Y-46689066D02*
G01*
X81486273Y-46445810D01*
X81729529Y-46445810D01*
X82945810Y-46445810D01*
X82945810Y-45229529D01*
X81729529Y-45229529D01*
X81729529Y-46445810D01*
X81486273Y-46445810D01*
X81486273Y-44986273D01*
X83189066Y-44986273D01*
X83189066Y-46689066D01*
X81486273Y-46689066D01*
G37*
G36*
X85621628Y-52775539D02*
G01*
X85378372Y-52775539D01*
X85378372Y-53018795D01*
X85130048Y-53018795D01*
X85130048Y-52770471D01*
X85373304Y-52770471D01*
X85373304Y-52527215D01*
X85621628Y-52527215D01*
X85621628Y-52775539D01*
G37*
G36*
X87081165Y-46932322D02*
G01*
X87319171Y-46932322D01*
X87317995Y-46449611D01*
X87316820Y-45966899D01*
X87196459Y-45965541D01*
X87076097Y-45964182D01*
X87075889Y-45843913D01*
X87075887Y-45842799D01*
X87075766Y-45798704D01*
X87075557Y-45748581D01*
X87075283Y-45696428D01*
X87074965Y-45646241D01*
X87074622Y-45602015D01*
X87073564Y-45480387D01*
X86833293Y-45479149D01*
X86785208Y-45478872D01*
X86740050Y-45478554D01*
X86699067Y-45478207D01*
X86663253Y-45477843D01*
X86633600Y-45477473D01*
X86611103Y-45477108D01*
X86596754Y-45476759D01*
X86591548Y-45476437D01*
X86591106Y-45471484D01*
X86590682Y-45457194D01*
X86590302Y-45434429D01*
X86589973Y-45404040D01*
X86589699Y-45366876D01*
X86589485Y-45323786D01*
X86589337Y-45275621D01*
X86589259Y-45223229D01*
X86589257Y-45167462D01*
X86589335Y-45109168D01*
X86589585Y-44986273D01*
X87324421Y-44986273D01*
X87324421Y-45234597D01*
X87081165Y-45234597D01*
X87081165Y-45472785D01*
X87567678Y-45472785D01*
X87567678Y-46937390D01*
X87324421Y-46937390D01*
X87324421Y-47418835D01*
X87567678Y-47418835D01*
X87567678Y-47667159D01*
X87324421Y-47667159D01*
X87324421Y-47910415D01*
X87081165Y-47910415D01*
X87081165Y-48148603D01*
X87324421Y-48148603D01*
X87324421Y-48640183D01*
X87081165Y-48640183D01*
X87081165Y-48878372D01*
X88049309Y-48878372D01*
X88047949Y-48760545D01*
X88046588Y-48642717D01*
X87924960Y-48641659D01*
X87923856Y-48641649D01*
X87879402Y-48641307D01*
X87829088Y-48640989D01*
X87776912Y-48640717D01*
X87726873Y-48640511D01*
X87682971Y-48640392D01*
X87562610Y-48640183D01*
X87562610Y-48396740D01*
X88297446Y-48396740D01*
X88297446Y-48635116D01*
X88535821Y-48635116D01*
X88534461Y-48517288D01*
X88533101Y-48399461D01*
X88415273Y-48398101D01*
X88297446Y-48396740D01*
X87562610Y-48396740D01*
X87562610Y-48391859D01*
X88292854Y-48391859D01*
X88292366Y-48271498D01*
X88292356Y-48269090D01*
X88292219Y-48224948D01*
X88292124Y-48174851D01*
X88292075Y-48122741D01*
X88292075Y-48072557D01*
X88292128Y-48028242D01*
X88292378Y-47905347D01*
X88540702Y-47905347D01*
X88540702Y-48391859D01*
X88783959Y-48391859D01*
X88783959Y-48635116D01*
X89265403Y-48635116D01*
X89265403Y-48391859D01*
X89513727Y-48391859D01*
X89513727Y-48640183D01*
X89270471Y-48640183D01*
X89270471Y-48878372D01*
X89513727Y-48878372D01*
X89513727Y-49369952D01*
X89265587Y-49369952D01*
X89262869Y-49129230D01*
X89145042Y-49127869D01*
X89027215Y-49126509D01*
X89027215Y-49369952D01*
X88783959Y-49369952D01*
X88783959Y-49608140D01*
X89027215Y-49608140D01*
X89027215Y-49856464D01*
X88783959Y-49856464D01*
X88783959Y-50829489D01*
X88540702Y-50829489D01*
X88540702Y-51072745D01*
X88292562Y-51072745D01*
X88289844Y-50832023D01*
X88172017Y-50830663D01*
X88054190Y-50829302D01*
X88054190Y-51072745D01*
X87931295Y-51072995D01*
X87928837Y-51073000D01*
X87884052Y-51073050D01*
X87833638Y-51073047D01*
X87781538Y-51072995D01*
X87731691Y-51072897D01*
X87688039Y-51072758D01*
X87567678Y-51072270D01*
X87567678Y-51316002D01*
X87444783Y-51316252D01*
X87442325Y-51316256D01*
X87397539Y-51316307D01*
X87347126Y-51316304D01*
X87295026Y-51316251D01*
X87245179Y-51316153D01*
X87201526Y-51316014D01*
X87081165Y-51315526D01*
X87081165Y-51554190D01*
X87567678Y-51554190D01*
X87567678Y-52532282D01*
X87324421Y-52532282D01*
X87324421Y-52770471D01*
X87567678Y-52770471D01*
X87567678Y-53018795D01*
X87319537Y-53018795D01*
X87318178Y-52898434D01*
X87316820Y-52778073D01*
X87198992Y-52776712D01*
X87081165Y-52775352D01*
X87081165Y-53018795D01*
X86832841Y-53018795D01*
X86832633Y-52898434D01*
X86832631Y-52897341D01*
X86832509Y-52853216D01*
X86832301Y-52803065D01*
X86832027Y-52750886D01*
X86831709Y-52700680D01*
X86831366Y-52656444D01*
X86830307Y-52534816D01*
X86351397Y-52532342D01*
X86351397Y-53018795D01*
X86103256Y-53018795D01*
X86101897Y-52898434D01*
X86100539Y-52778073D01*
X85859817Y-52775355D01*
X85859608Y-52655086D01*
X85859606Y-52653972D01*
X85859485Y-52609877D01*
X85859276Y-52559754D01*
X85859105Y-52527215D01*
X87081165Y-52527215D01*
X87319294Y-52527215D01*
X87318057Y-52287759D01*
X87316820Y-52048304D01*
X87198992Y-52046944D01*
X87081165Y-52045583D01*
X87081165Y-52527215D01*
X85859105Y-52527215D01*
X85859002Y-52507601D01*
X85858684Y-52457414D01*
X85858341Y-52413188D01*
X85857283Y-52291560D01*
X85735655Y-52290502D01*
X85734550Y-52290492D01*
X85690097Y-52290150D01*
X85639782Y-52289832D01*
X85587606Y-52289560D01*
X85537568Y-52289354D01*
X85493665Y-52289235D01*
X85373304Y-52289026D01*
X85373304Y-52040702D01*
X85864884Y-52040702D01*
X85864884Y-52283958D01*
X86103046Y-52283958D01*
X86102917Y-51920341D01*
X86102907Y-51890745D01*
X86102890Y-51826744D01*
X86102877Y-51763240D01*
X86102870Y-51701438D01*
X86102868Y-51642542D01*
X86102870Y-51587757D01*
X86102878Y-51538288D01*
X86102891Y-51495341D01*
X86102908Y-51460119D01*
X86102930Y-51433829D01*
X86103073Y-51310934D01*
X86351397Y-51310934D01*
X86351397Y-51554190D01*
X86594653Y-51554190D01*
X86594653Y-51802514D01*
X86351397Y-51802514D01*
X86351397Y-52283958D01*
X86589585Y-52283958D01*
X86589585Y-52040702D01*
X87076038Y-52040702D01*
X87073564Y-51561792D01*
X86953202Y-51560433D01*
X86832841Y-51559074D01*
X86832841Y-51310934D01*
X87076097Y-51310934D01*
X87076097Y-51067677D01*
X87319540Y-51067677D01*
X87316820Y-50832023D01*
X86834108Y-50830848D01*
X86351397Y-50829672D01*
X86351397Y-51072745D01*
X86103256Y-51072745D01*
X86101897Y-50952384D01*
X86100539Y-50832023D01*
X85982712Y-50830663D01*
X85864884Y-50829302D01*
X85864884Y-51072745D01*
X85621628Y-51072745D01*
X85621628Y-51310934D01*
X85864884Y-51310934D01*
X85864884Y-51559258D01*
X85741989Y-51559508D01*
X85686292Y-51559584D01*
X85630392Y-51559586D01*
X85577829Y-51559511D01*
X85529453Y-51559366D01*
X85486115Y-51559155D01*
X85448663Y-51558883D01*
X85417948Y-51558557D01*
X85394819Y-51558179D01*
X85380127Y-51557757D01*
X85374720Y-51557295D01*
X85374400Y-51552139D01*
X85374051Y-51537835D01*
X85373686Y-51515377D01*
X85373316Y-51485759D01*
X85372952Y-51449973D01*
X85372605Y-51409014D01*
X85372287Y-51363875D01*
X85372008Y-51315550D01*
X85370770Y-51075279D01*
X85135116Y-51072559D01*
X85135116Y-51559258D01*
X84886975Y-51559258D01*
X84885617Y-51438897D01*
X84884258Y-51318535D01*
X84766431Y-51317175D01*
X84648603Y-51315815D01*
X84648603Y-51797446D01*
X85135116Y-51797446D01*
X85135116Y-52045770D01*
X84891860Y-52045770D01*
X84891860Y-52289026D01*
X84648603Y-52289026D01*
X84648603Y-52775539D01*
X84525708Y-52775789D01*
X84523250Y-52775793D01*
X84478465Y-52775844D01*
X84428052Y-52775841D01*
X84375951Y-52775788D01*
X84326104Y-52775690D01*
X84282452Y-52775551D01*
X84162091Y-52775063D01*
X84162091Y-53018615D01*
X84039196Y-53019972D01*
X84033351Y-53020034D01*
X83988362Y-53020373D01*
X83937646Y-53020563D01*
X83885050Y-53020599D01*
X83834420Y-53020478D01*
X83789605Y-53020196D01*
X83782395Y-53020133D01*
X83736902Y-53019784D01*
X83686729Y-53019471D01*
X83635581Y-53019211D01*
X83587162Y-53019024D01*
X83545174Y-53018929D01*
X83427438Y-53018795D01*
X83426079Y-52898434D01*
X83424721Y-52778073D01*
X83304451Y-52776714D01*
X83184181Y-52775356D01*
X83181465Y-52534816D01*
X82942009Y-52533579D01*
X82702554Y-52532342D01*
X82702554Y-52770471D01*
X82945810Y-52770471D01*
X82945810Y-53018795D01*
X82697670Y-53018795D01*
X82694952Y-52778073D01*
X82333869Y-52776877D01*
X81972785Y-52775681D01*
X81972785Y-53018795D01*
X81724461Y-53018795D01*
X81724461Y-52770471D01*
X81967658Y-52770471D01*
X81966421Y-52531015D01*
X81966401Y-52527215D01*
X82459298Y-52527215D01*
X84400137Y-52527215D01*
X84398941Y-52166131D01*
X84397745Y-51805048D01*
X84279918Y-51803687D01*
X84162091Y-51802327D01*
X84162091Y-52527215D01*
X83913954Y-52527215D01*
X83912593Y-52409387D01*
X83911233Y-52291560D01*
X83550150Y-52290364D01*
X83189066Y-52289168D01*
X83189066Y-52527215D01*
X82697673Y-52527215D01*
X82696313Y-52409387D01*
X82694952Y-52291560D01*
X82577125Y-52290200D01*
X82459298Y-52288839D01*
X82459298Y-52527215D01*
X81966401Y-52527215D01*
X81965184Y-52291560D01*
X81843556Y-52290502D01*
X81842451Y-52290492D01*
X81797998Y-52290150D01*
X81747683Y-52289832D01*
X81695507Y-52289560D01*
X81645469Y-52289354D01*
X81601566Y-52289235D01*
X81481205Y-52289026D01*
X81481205Y-52283958D01*
X81972785Y-52283958D01*
X82454417Y-52283958D01*
X82702554Y-52283958D01*
X83184185Y-52283958D01*
X83181465Y-52048304D01*
X82942009Y-52047067D01*
X82702554Y-52045830D01*
X82702554Y-52283958D01*
X82454417Y-52283958D01*
X82453056Y-52166131D01*
X82451696Y-52048304D01*
X82331426Y-52046946D01*
X82211157Y-52045587D01*
X82211102Y-52040702D01*
X83675579Y-52040702D01*
X83913954Y-52040702D01*
X83912593Y-51922875D01*
X83911233Y-51805048D01*
X83793406Y-51803687D01*
X83675579Y-51802327D01*
X83675579Y-52040702D01*
X82211102Y-52040702D01*
X82209798Y-51925317D01*
X82208440Y-51805048D01*
X82090613Y-51803687D01*
X81972785Y-51802327D01*
X81972785Y-52283958D01*
X81481205Y-52283958D01*
X81481205Y-52040702D01*
X81724648Y-52040702D01*
X81723288Y-51922875D01*
X81721927Y-51805048D01*
X81481205Y-51802330D01*
X81481205Y-51797446D01*
X81729529Y-51797446D01*
X83427113Y-51797446D01*
X83425917Y-51436363D01*
X83424721Y-51075279D01*
X83063637Y-51074083D01*
X82702554Y-51072887D01*
X82702554Y-51797446D01*
X81967904Y-51797446D01*
X81965184Y-51561792D01*
X81847356Y-51560431D01*
X81729529Y-51559071D01*
X81729529Y-51797446D01*
X81481205Y-51797446D01*
X81481205Y-51554190D01*
X81724648Y-51554190D01*
X82216042Y-51554190D01*
X82454170Y-51554190D01*
X82452933Y-51314735D01*
X82451696Y-51075279D01*
X82216042Y-51072559D01*
X82216042Y-51554190D01*
X81724648Y-51554190D01*
X81723288Y-51436363D01*
X81721927Y-51318535D01*
X81601566Y-51317177D01*
X81481205Y-51315818D01*
X81481205Y-51067677D01*
X82211161Y-51067677D01*
X82209800Y-50949850D01*
X82208440Y-50832023D01*
X82088170Y-50830665D01*
X81967901Y-50829306D01*
X81966542Y-50709037D01*
X81965184Y-50588767D01*
X81847356Y-50587407D01*
X81729529Y-50586046D01*
X82459298Y-50586046D01*
X82459298Y-50824421D01*
X82697673Y-50824421D01*
X82696313Y-50706594D01*
X82694952Y-50588767D01*
X82577125Y-50587407D01*
X82459298Y-50586046D01*
X81729529Y-50586046D01*
X81729529Y-50829489D01*
X81481205Y-50829489D01*
X81481205Y-50581165D01*
X81724648Y-50581165D01*
X82945810Y-50581165D01*
X83184185Y-50581165D01*
X83181465Y-50345511D01*
X83063637Y-50344150D01*
X82945810Y-50342790D01*
X82945810Y-50581165D01*
X81724648Y-50581165D01*
X81723288Y-50463338D01*
X81721927Y-50345511D01*
X81481205Y-50342793D01*
X81481205Y-50337909D01*
X81729529Y-50337909D01*
X82940929Y-50337909D01*
X83189066Y-50337909D01*
X83432323Y-50337909D01*
X83432323Y-50824421D01*
X83670511Y-50824421D01*
X83670511Y-50581165D01*
X84648603Y-50581165D01*
X84648603Y-50829489D01*
X84525708Y-50829739D01*
X84523250Y-50829744D01*
X84478465Y-50829794D01*
X84428052Y-50829791D01*
X84375951Y-50829739D01*
X84326104Y-50829641D01*
X84282452Y-50829501D01*
X84162091Y-50829014D01*
X84162091Y-51072745D01*
X83918835Y-51072745D01*
X83918835Y-51310934D01*
X84162091Y-51310934D01*
X84162091Y-51554190D01*
X84400279Y-51554190D01*
X84400279Y-51310934D01*
X84643536Y-51310934D01*
X84643536Y-51067677D01*
X85130235Y-51067677D01*
X85128874Y-50949850D01*
X85127514Y-50832023D01*
X85007153Y-50830664D01*
X84886792Y-50829306D01*
X84886792Y-50581165D01*
X85135116Y-50581165D01*
X85135116Y-50824421D01*
X85378372Y-50824421D01*
X85378372Y-51067677D01*
X85616501Y-51067677D01*
X85615264Y-50828222D01*
X85615244Y-50824421D01*
X86108141Y-50824421D01*
X86346329Y-50824421D01*
X87324421Y-50824421D01*
X88049309Y-50824421D01*
X88047949Y-50706594D01*
X88046588Y-50588767D01*
X87926319Y-50587408D01*
X87806049Y-50586050D01*
X87805994Y-50581165D01*
X88054190Y-50581165D01*
X88535575Y-50581165D01*
X88533101Y-50102255D01*
X88415273Y-50100894D01*
X88297446Y-50099534D01*
X88297446Y-50342977D01*
X88054190Y-50342977D01*
X88054190Y-50581165D01*
X87805994Y-50581165D01*
X87804691Y-50465780D01*
X87803332Y-50345511D01*
X87685505Y-50344150D01*
X87567678Y-50342790D01*
X87567678Y-50586233D01*
X87324421Y-50586233D01*
X87324421Y-50824421D01*
X86346329Y-50824421D01*
X86346329Y-50581165D01*
X86589585Y-50581165D01*
X86589585Y-50337909D01*
X87076284Y-50337909D01*
X87324421Y-50337909D01*
X88049309Y-50337909D01*
X88047949Y-50220082D01*
X88046588Y-50102255D01*
X87928761Y-50100894D01*
X87810934Y-50099534D01*
X87810934Y-50337909D01*
X87562797Y-50337909D01*
X87561436Y-50220082D01*
X87560076Y-50102255D01*
X87442249Y-50100894D01*
X87324421Y-50099534D01*
X87324421Y-50337909D01*
X87076284Y-50337909D01*
X87073564Y-50102255D01*
X86953202Y-50100896D01*
X86832841Y-50099537D01*
X86832841Y-49851397D01*
X87081165Y-49851397D01*
X87081165Y-50094653D01*
X87319829Y-50094653D01*
X87567678Y-50094653D01*
X87806053Y-50094653D01*
X88054190Y-50094653D01*
X88292565Y-50094653D01*
X88291205Y-49976826D01*
X88289844Y-49858998D01*
X88054190Y-49856278D01*
X88054190Y-50094653D01*
X87806053Y-50094653D01*
X87804692Y-49976826D01*
X87803332Y-49858998D01*
X87567678Y-49856278D01*
X87567678Y-50094653D01*
X87319829Y-50094653D01*
X87319341Y-49974292D01*
X87319332Y-49971883D01*
X87319195Y-49927741D01*
X87319099Y-49877644D01*
X87319074Y-49851397D01*
X87810934Y-49851397D01*
X88049309Y-49851397D01*
X88047949Y-49733569D01*
X88046588Y-49615742D01*
X87928761Y-49614382D01*
X87810934Y-49613021D01*
X87810934Y-49851397D01*
X87319074Y-49851397D01*
X87319050Y-49825534D01*
X87319050Y-49775351D01*
X87319104Y-49731035D01*
X87319354Y-49608140D01*
X87562797Y-49608140D01*
X87561436Y-49490313D01*
X87560076Y-49372486D01*
X87198992Y-49371290D01*
X86837909Y-49370094D01*
X86837909Y-49613208D01*
X86594653Y-49613208D01*
X86594653Y-49856464D01*
X86471758Y-49856714D01*
X86469300Y-49856719D01*
X86424515Y-49856769D01*
X86374101Y-49856766D01*
X86322001Y-49856714D01*
X86272154Y-49856616D01*
X86228502Y-49856477D01*
X86108141Y-49855989D01*
X86108141Y-50094653D01*
X86351397Y-50094653D01*
X86351397Y-50342977D01*
X86108141Y-50342977D01*
X86108141Y-50824421D01*
X85615244Y-50824421D01*
X85614026Y-50588767D01*
X85493665Y-50587408D01*
X85373304Y-50586050D01*
X85373304Y-50337909D01*
X85616747Y-50337909D01*
X85864884Y-50337909D01*
X86103260Y-50337909D01*
X86101899Y-50220082D01*
X86100539Y-50102255D01*
X85982712Y-50100894D01*
X85864884Y-50099534D01*
X85864884Y-50337909D01*
X85616747Y-50337909D01*
X85615387Y-50220082D01*
X85614026Y-50102255D01*
X85493757Y-50100896D01*
X85373487Y-50099538D01*
X85372129Y-49979268D01*
X85370770Y-49858998D01*
X84891860Y-49856524D01*
X84891860Y-50094653D01*
X85135116Y-50094653D01*
X85135116Y-50342977D01*
X84886975Y-50342977D01*
X84885617Y-50222616D01*
X84884258Y-50102255D01*
X84763988Y-50100896D01*
X84643719Y-50099538D01*
X84642360Y-49979268D01*
X84641002Y-49858998D01*
X84401546Y-49857761D01*
X84162091Y-49856524D01*
X84162091Y-50094653D01*
X84405347Y-50094653D01*
X84405347Y-50342977D01*
X84157207Y-50342977D01*
X84154489Y-50102255D01*
X84036662Y-50100894D01*
X83918835Y-50099534D01*
X83918835Y-50342977D01*
X83670694Y-50342977D01*
X83669336Y-50222616D01*
X83667977Y-50102255D01*
X83428522Y-50101017D01*
X83189066Y-50099780D01*
X83189066Y-50337909D01*
X82940929Y-50337909D01*
X82939569Y-50220082D01*
X82938208Y-50102255D01*
X82698753Y-50101017D01*
X82459298Y-50099780D01*
X82459298Y-50337909D01*
X81967904Y-50337909D01*
X81965184Y-50102255D01*
X81847356Y-50100894D01*
X81729529Y-50099534D01*
X81729529Y-50337909D01*
X81481205Y-50337909D01*
X81481205Y-50094653D01*
X81724648Y-50094653D01*
X81723288Y-49976826D01*
X81721927Y-49858998D01*
X81601566Y-49857640D01*
X81481205Y-49856281D01*
X81481205Y-49856278D01*
X81972785Y-49856278D01*
X81972785Y-50094653D01*
X82211161Y-50094653D01*
X82209800Y-49976826D01*
X82208440Y-49858998D01*
X82090613Y-49857638D01*
X81972785Y-49856278D01*
X82945810Y-49856278D01*
X82945810Y-50094653D01*
X83184185Y-50094653D01*
X83182825Y-49976826D01*
X83181465Y-49858998D01*
X83063637Y-49857638D01*
X82945810Y-49856278D01*
X81972785Y-49856278D01*
X81481205Y-49856278D01*
X81481205Y-49608140D01*
X81724402Y-49608140D01*
X82216042Y-49608140D01*
X82454417Y-49608140D01*
X82945810Y-49608140D01*
X83189066Y-49608140D01*
X83189066Y-49851397D01*
X83675579Y-49851397D01*
X83675579Y-50094653D01*
X83914242Y-50094653D01*
X83913755Y-49974292D01*
X83913745Y-49971883D01*
X83913608Y-49927741D01*
X83913513Y-49877644D01*
X83913488Y-49851397D01*
X85378372Y-49851397D01*
X85621628Y-49851397D01*
X85621628Y-50094653D01*
X85859817Y-50094653D01*
X85859817Y-49851397D01*
X86103013Y-49851397D01*
X86101776Y-49611941D01*
X86101756Y-49608140D01*
X86351397Y-49608140D01*
X86589772Y-49608140D01*
X86588412Y-49490313D01*
X86587051Y-49372486D01*
X86469224Y-49371126D01*
X86351397Y-49369765D01*
X86351397Y-49608140D01*
X86101756Y-49608140D01*
X86100539Y-49372486D01*
X85982712Y-49371126D01*
X85864884Y-49369765D01*
X85864884Y-49613208D01*
X85741989Y-49613458D01*
X85739531Y-49613463D01*
X85694746Y-49613513D01*
X85644333Y-49613510D01*
X85592232Y-49613458D01*
X85542385Y-49613360D01*
X85498733Y-49613221D01*
X85378372Y-49612733D01*
X85378372Y-49851397D01*
X83913488Y-49851397D01*
X83913463Y-49825534D01*
X83913464Y-49775351D01*
X83913517Y-49731035D01*
X83913767Y-49608140D01*
X85130235Y-49608140D01*
X85128874Y-49490313D01*
X85127514Y-49372486D01*
X85007244Y-49371127D01*
X84886975Y-49369769D01*
X84885616Y-49249499D01*
X84884258Y-49129230D01*
X84766431Y-49127869D01*
X84648603Y-49126509D01*
X84648603Y-49608140D01*
X84400137Y-49608140D01*
X84397745Y-48885974D01*
X84279918Y-48884613D01*
X84162091Y-48883253D01*
X84162091Y-49126696D01*
X83918835Y-49126696D01*
X83918835Y-49369952D01*
X83675579Y-49369952D01*
X83675579Y-49613208D01*
X83427255Y-49613208D01*
X83427255Y-49364884D01*
X83670698Y-49364884D01*
X83669337Y-49247057D01*
X83667977Y-49129230D01*
X83428522Y-49127993D01*
X83189066Y-49126755D01*
X83189066Y-49369952D01*
X82945810Y-49369952D01*
X82945810Y-49608140D01*
X82454417Y-49608140D01*
X82453056Y-49490313D01*
X82451696Y-49372486D01*
X82333869Y-49371126D01*
X82216042Y-49369765D01*
X82216042Y-49608140D01*
X81724402Y-49608140D01*
X81723165Y-49368685D01*
X81723145Y-49364884D01*
X82459298Y-49364884D01*
X82697673Y-49364884D01*
X82696313Y-49247057D01*
X82694952Y-49129230D01*
X82577125Y-49127869D01*
X82459298Y-49126509D01*
X82459298Y-49364884D01*
X81723145Y-49364884D01*
X81721927Y-49129230D01*
X81481205Y-49126512D01*
X81481205Y-48878372D01*
X81729529Y-48878372D01*
X81729529Y-49121628D01*
X82454417Y-49121628D01*
X82945810Y-49121628D01*
X83913954Y-49121628D01*
X83912593Y-49003801D01*
X83911233Y-48885974D01*
X83793406Y-48884613D01*
X83675579Y-48883253D01*
X83675579Y-49121628D01*
X83184185Y-49121628D01*
X83181465Y-48885974D01*
X83063637Y-48884613D01*
X82945810Y-48883253D01*
X82945810Y-49121628D01*
X82454417Y-49121628D01*
X82453056Y-49003801D01*
X82451696Y-48885974D01*
X82330068Y-48884915D01*
X82328942Y-48884905D01*
X82284494Y-48884563D01*
X82234197Y-48884245D01*
X82182047Y-48883973D01*
X82132039Y-48883767D01*
X82088170Y-48883648D01*
X81967901Y-48883440D01*
X81966542Y-48763079D01*
X81965184Y-48642717D01*
X81844914Y-48641359D01*
X81724644Y-48640000D01*
X81724589Y-48635116D01*
X81972785Y-48635116D01*
X82210974Y-48635116D01*
X82210974Y-48391859D01*
X82702554Y-48391859D01*
X82702554Y-48878372D01*
X82940600Y-48878372D01*
X83918835Y-48878372D01*
X84157210Y-48878372D01*
X84155850Y-48760545D01*
X84154489Y-48642717D01*
X83918835Y-48639997D01*
X83918835Y-48878372D01*
X82940600Y-48878372D01*
X82939404Y-48517288D01*
X82939005Y-48396740D01*
X83675579Y-48396740D01*
X83675579Y-48635116D01*
X83913954Y-48635116D01*
X83912593Y-48517288D01*
X83911233Y-48399461D01*
X83793406Y-48398101D01*
X83675579Y-48396740D01*
X82939005Y-48396740D01*
X82938989Y-48391859D01*
X83432323Y-48391859D01*
X83670451Y-48391859D01*
X83918835Y-48391859D01*
X84162091Y-48391859D01*
X84162091Y-48635116D01*
X84643722Y-48635116D01*
X84642362Y-48517288D01*
X84641002Y-48399461D01*
X84520641Y-48398103D01*
X84400279Y-48396744D01*
X84400279Y-48148603D01*
X84648603Y-48148603D01*
X84648603Y-48391859D01*
X84891860Y-48391859D01*
X84891860Y-48635116D01*
X85135116Y-48635116D01*
X85135116Y-48883440D01*
X84891860Y-48883440D01*
X84891860Y-49121628D01*
X85621628Y-49121628D01*
X85621628Y-49364884D01*
X85859817Y-49364884D01*
X85859817Y-49121628D01*
X86108141Y-49121628D01*
X86108141Y-49364884D01*
X86346329Y-49364884D01*
X86594653Y-49364884D01*
X86833028Y-49364884D01*
X87567678Y-49364884D01*
X88054190Y-49364884D01*
X88054190Y-49608140D01*
X88292236Y-49608140D01*
X88290625Y-49121628D01*
X88783959Y-49121628D01*
X89022334Y-49121628D01*
X89020973Y-49003801D01*
X89019613Y-48885974D01*
X88901786Y-48884613D01*
X88783959Y-48883253D01*
X88783959Y-49121628D01*
X88290625Y-49121628D01*
X88289844Y-48885974D01*
X88172017Y-48884613D01*
X88054190Y-48883253D01*
X88054190Y-49126696D01*
X87931295Y-49126946D01*
X87928837Y-49126951D01*
X87884052Y-49127001D01*
X87833638Y-49126998D01*
X87781538Y-49126945D01*
X87731691Y-49126848D01*
X87688039Y-49126708D01*
X87567678Y-49126220D01*
X87567678Y-49364884D01*
X86833028Y-49364884D01*
X86831668Y-49247057D01*
X86830307Y-49129230D01*
X86712480Y-49127869D01*
X86594653Y-49126509D01*
X86594653Y-49364884D01*
X86346329Y-49364884D01*
X86346329Y-49121628D01*
X86589772Y-49121628D01*
X86837909Y-49121628D01*
X87076284Y-49121628D01*
X87073564Y-48885974D01*
X86955736Y-48884613D01*
X86837909Y-48883253D01*
X86837909Y-49121628D01*
X86589772Y-49121628D01*
X86588412Y-49003801D01*
X86587051Y-48885974D01*
X86465423Y-48884915D01*
X86464297Y-48884905D01*
X86419849Y-48884563D01*
X86369552Y-48884245D01*
X86317402Y-48883973D01*
X86267394Y-48883767D01*
X86223526Y-48883648D01*
X86103256Y-48883440D01*
X86101897Y-48763079D01*
X86100539Y-48642717D01*
X85980269Y-48641359D01*
X85860000Y-48640000D01*
X85859945Y-48635116D01*
X86594653Y-48635116D01*
X87076038Y-48635116D01*
X87074801Y-48395660D01*
X87073564Y-48156205D01*
X86955736Y-48154845D01*
X86837909Y-48153484D01*
X86837909Y-48396927D01*
X86594653Y-48396927D01*
X86594653Y-48635116D01*
X85859945Y-48635116D01*
X85858641Y-48519731D01*
X85857283Y-48399461D01*
X85614026Y-48398344D01*
X85582105Y-48398201D01*
X85526980Y-48397967D01*
X85471535Y-48397747D01*
X85417513Y-48397548D01*
X85366656Y-48397375D01*
X85320706Y-48397235D01*
X85281407Y-48397134D01*
X85250501Y-48397077D01*
X85130231Y-48396927D01*
X85128873Y-48276566D01*
X85127514Y-48156205D01*
X85007244Y-48154847D01*
X84886975Y-48153488D01*
X84885616Y-48033218D01*
X84884258Y-47912949D01*
X84643536Y-47910231D01*
X84643536Y-47905347D01*
X84891860Y-47905347D01*
X85135116Y-47905347D01*
X85135116Y-48148603D01*
X86351397Y-48148603D01*
X86351397Y-48391859D01*
X86589585Y-48391859D01*
X86589585Y-48148603D01*
X86832699Y-48148603D01*
X86831503Y-47787520D01*
X86830307Y-47426436D01*
X86708679Y-47425378D01*
X86707553Y-47425368D01*
X86663106Y-47425026D01*
X86612808Y-47424708D01*
X86560658Y-47424436D01*
X86510650Y-47424230D01*
X86466782Y-47424111D01*
X86346512Y-47423903D01*
X86345154Y-47303541D01*
X86343795Y-47183180D01*
X85982712Y-47181984D01*
X85621628Y-47180788D01*
X85621628Y-47418835D01*
X85864884Y-47418835D01*
X85864884Y-47662091D01*
X86108141Y-47662091D01*
X86108141Y-47910070D01*
X85985245Y-47911509D01*
X85983346Y-47911531D01*
X85938399Y-47911900D01*
X85887532Y-47912081D01*
X85834759Y-47912077D01*
X85784093Y-47911885D01*
X85739547Y-47911507D01*
X85616743Y-47910065D01*
X85615385Y-47789879D01*
X85614026Y-47669693D01*
X85373304Y-47666975D01*
X85373096Y-47546706D01*
X85373094Y-47545593D01*
X85372972Y-47501497D01*
X85372764Y-47451374D01*
X85372490Y-47399222D01*
X85372171Y-47349034D01*
X85371829Y-47304808D01*
X85370770Y-47183180D01*
X85135116Y-47180460D01*
X85135116Y-47667159D01*
X84891860Y-47667159D01*
X84891860Y-47905347D01*
X84643536Y-47905347D01*
X84643536Y-47662091D01*
X84886979Y-47662091D01*
X84885618Y-47544264D01*
X84884258Y-47426436D01*
X84644803Y-47425199D01*
X84405347Y-47423962D01*
X84405347Y-47910415D01*
X84162091Y-47910415D01*
X84162091Y-48153671D01*
X83918835Y-48153671D01*
X83918835Y-48391859D01*
X83670451Y-48391859D01*
X83667977Y-47912949D01*
X83550150Y-47911588D01*
X83432323Y-47910228D01*
X83432323Y-48391859D01*
X82938989Y-48391859D01*
X82938208Y-48156205D01*
X82694952Y-48155088D01*
X82663030Y-48154944D01*
X82607906Y-48154711D01*
X82552461Y-48154491D01*
X82498439Y-48154292D01*
X82447582Y-48154119D01*
X82401632Y-48153979D01*
X82362333Y-48153878D01*
X82331427Y-48153821D01*
X82211157Y-48153671D01*
X82209798Y-48033310D01*
X82208440Y-47912949D01*
X82090613Y-47911588D01*
X81972785Y-47910228D01*
X81972785Y-48635116D01*
X81724589Y-48635116D01*
X81723286Y-48519731D01*
X81721927Y-48399461D01*
X81601566Y-48398103D01*
X81481205Y-48396744D01*
X81481067Y-48277741D01*
X81481060Y-48271229D01*
X81481018Y-48227454D01*
X81480982Y-48177909D01*
X81480954Y-48126333D01*
X81480935Y-48076465D01*
X81480929Y-48032043D01*
X81480929Y-48025741D01*
X81480938Y-47979936D01*
X81480958Y-47929020D01*
X81480988Y-47876804D01*
X81481025Y-47827100D01*
X81481067Y-47783719D01*
X81481205Y-47662091D01*
X81724648Y-47662091D01*
X82216042Y-47662091D01*
X82454417Y-47662091D01*
X82453056Y-47544264D01*
X82451696Y-47426436D01*
X82216042Y-47423716D01*
X82216042Y-47662091D01*
X81724648Y-47662091D01*
X81723288Y-47544264D01*
X81721927Y-47426436D01*
X81601566Y-47425078D01*
X81481205Y-47423719D01*
X81481205Y-47175579D01*
X81729529Y-47175579D01*
X81729529Y-47418835D01*
X81968193Y-47418835D01*
X82459298Y-47418835D01*
X82697673Y-47418835D01*
X82696313Y-47301008D01*
X82694952Y-47183180D01*
X82459298Y-47180460D01*
X82459298Y-47418835D01*
X81968193Y-47418835D01*
X81967705Y-47298474D01*
X81967696Y-47296065D01*
X81967559Y-47251923D01*
X81967463Y-47201826D01*
X81967414Y-47149716D01*
X81967414Y-47099533D01*
X81967468Y-47055217D01*
X81967718Y-46932322D01*
X83189066Y-46932322D01*
X83189066Y-47423903D01*
X83066171Y-47424153D01*
X83063713Y-47424157D01*
X83018928Y-47424208D01*
X82968515Y-47424205D01*
X82916414Y-47424152D01*
X82866567Y-47424054D01*
X82822915Y-47423915D01*
X82702554Y-47423427D01*
X82702554Y-47905347D01*
X82945810Y-47905347D01*
X82945810Y-48148603D01*
X83184474Y-48148603D01*
X83183986Y-48028242D01*
X83183977Y-48025834D01*
X83183840Y-47981692D01*
X83183744Y-47931595D01*
X83183695Y-47879484D01*
X83183695Y-47829301D01*
X83183748Y-47784986D01*
X83183998Y-47662091D01*
X83427255Y-47662091D01*
X83427255Y-47418835D01*
X83670511Y-47418835D01*
X83670511Y-47175579D01*
X83918835Y-47175579D01*
X83918835Y-47423903D01*
X83675579Y-47423903D01*
X83675579Y-47905347D01*
X83913767Y-47905347D01*
X83913767Y-47662091D01*
X84157499Y-47662091D01*
X84157011Y-47541730D01*
X84157001Y-47539321D01*
X84156864Y-47495179D01*
X84156769Y-47445083D01*
X84156720Y-47392972D01*
X84156720Y-47342789D01*
X84156773Y-47298474D01*
X84157023Y-47175579D01*
X85130048Y-47175579D01*
X85130048Y-46932322D01*
X85378372Y-46932322D01*
X85378372Y-47175579D01*
X85616501Y-47175579D01*
X86351397Y-47175579D01*
X87076284Y-47175579D01*
X87074924Y-47057751D01*
X87073564Y-46939924D01*
X86712480Y-46938728D01*
X86351397Y-46937532D01*
X86351397Y-47175579D01*
X85616501Y-47175579D01*
X85615264Y-46936123D01*
X85615244Y-46932322D01*
X86108141Y-46932322D01*
X86346269Y-46932322D01*
X86345012Y-46689066D01*
X86594653Y-46689066D01*
X86833028Y-46689066D01*
X86831668Y-46571239D01*
X86830307Y-46453412D01*
X86712480Y-46452051D01*
X86594653Y-46450691D01*
X86594653Y-46689066D01*
X86345012Y-46689066D01*
X86343795Y-46453412D01*
X86225968Y-46452051D01*
X86108141Y-46450691D01*
X86108141Y-46932322D01*
X85615244Y-46932322D01*
X85614026Y-46696668D01*
X85493840Y-46695310D01*
X85373654Y-46693951D01*
X85373597Y-46689066D01*
X85621628Y-46689066D01*
X85860003Y-46689066D01*
X85857283Y-46453412D01*
X85739455Y-46452051D01*
X85621628Y-46450691D01*
X85621628Y-46689066D01*
X85373597Y-46689066D01*
X85372212Y-46571148D01*
X85372190Y-46569250D01*
X85371821Y-46524326D01*
X85371638Y-46473471D01*
X85371642Y-46420697D01*
X85371832Y-46370019D01*
X85372210Y-46325449D01*
X85373649Y-46202554D01*
X85616747Y-46202554D01*
X85864884Y-46202554D01*
X86103260Y-46202554D01*
X86101899Y-46084727D01*
X86100539Y-45966899D01*
X85982712Y-45965539D01*
X85864884Y-45964179D01*
X85864884Y-46202554D01*
X85616747Y-46202554D01*
X85615387Y-46084727D01*
X85614026Y-45966899D01*
X85493757Y-45965541D01*
X85373487Y-45964182D01*
X85372129Y-45843913D01*
X85370770Y-45723643D01*
X85249142Y-45722585D01*
X85248038Y-45722575D01*
X85203584Y-45722233D01*
X85153270Y-45721915D01*
X85101094Y-45721643D01*
X85051055Y-45721437D01*
X85007153Y-45721318D01*
X84886792Y-45721109D01*
X84886792Y-45716041D01*
X85378372Y-45716041D01*
X86103260Y-45716041D01*
X86101899Y-45598214D01*
X86100539Y-45480387D01*
X85982712Y-45479027D01*
X85864884Y-45477666D01*
X85864884Y-45716041D01*
X85616747Y-45716041D01*
X85615387Y-45598214D01*
X85614026Y-45480387D01*
X85496199Y-45479027D01*
X85378372Y-45477666D01*
X85378372Y-45716041D01*
X84886792Y-45716041D01*
X84886792Y-45472785D01*
X85130235Y-45472785D01*
X85128874Y-45354958D01*
X85127514Y-45237131D01*
X84888059Y-45235894D01*
X84648603Y-45234656D01*
X84648603Y-45964365D01*
X84405347Y-45964365D01*
X84405347Y-46202554D01*
X84648603Y-46202554D01*
X84648603Y-46694134D01*
X84405347Y-46694134D01*
X84405347Y-46937390D01*
X84157207Y-46937390D01*
X84154489Y-46696668D01*
X84036662Y-46695308D01*
X83918835Y-46693947D01*
X83918835Y-46937390D01*
X83795940Y-46937640D01*
X83792275Y-46937647D01*
X83735586Y-46937719D01*
X83681051Y-46937714D01*
X83629557Y-46937636D01*
X83581992Y-46937492D01*
X83539242Y-46937286D01*
X83502194Y-46937024D01*
X83471735Y-46936710D01*
X83448750Y-46936350D01*
X83434128Y-46935949D01*
X83428755Y-46935512D01*
X83428648Y-46934681D01*
X83428377Y-46925805D01*
X83428124Y-46907834D01*
X83427890Y-46881521D01*
X83427678Y-46847620D01*
X83427490Y-46806885D01*
X83427327Y-46760070D01*
X83427192Y-46707929D01*
X83427157Y-46689066D01*
X83675579Y-46689066D01*
X83913767Y-46689066D01*
X83913767Y-46445810D01*
X84162091Y-46445810D01*
X84162091Y-46689066D01*
X84400220Y-46689066D01*
X84398983Y-46449611D01*
X84397745Y-46210156D01*
X84277476Y-46208797D01*
X84157206Y-46207439D01*
X84155848Y-46087169D01*
X84154489Y-45966899D01*
X83918835Y-45964179D01*
X83918835Y-46207622D01*
X83675579Y-46207622D01*
X83675579Y-46689066D01*
X83427157Y-46689066D01*
X83427087Y-46651215D01*
X83427014Y-46590683D01*
X83426975Y-46527087D01*
X83426972Y-46461180D01*
X83427007Y-46393716D01*
X83427082Y-46325449D01*
X83427255Y-46202554D01*
X83670698Y-46202554D01*
X83669337Y-46084727D01*
X83667977Y-45966899D01*
X83547616Y-45965541D01*
X83427255Y-45964182D01*
X83427255Y-45716041D01*
X83675579Y-45716041D01*
X83675579Y-45959298D01*
X83913625Y-45959298D01*
X84162091Y-45959298D01*
X84400466Y-45959298D01*
X84399106Y-45841470D01*
X84397745Y-45723643D01*
X84279918Y-45722283D01*
X84162091Y-45720922D01*
X84162091Y-45959298D01*
X83913625Y-45959298D01*
X83912429Y-45598214D01*
X83911233Y-45237131D01*
X83670511Y-45234413D01*
X83670511Y-44986273D01*
X83918835Y-44986273D01*
X83918835Y-45229529D01*
X84157023Y-45229529D01*
X84157023Y-44986273D01*
X85378372Y-44986273D01*
X85378372Y-45229529D01*
X86103073Y-45229529D01*
X86103073Y-44986273D01*
X86351397Y-44986273D01*
X86351397Y-45721109D01*
X86108141Y-45721109D01*
X86108141Y-45959298D01*
X86589585Y-45959298D01*
X86589585Y-45716041D01*
X86837909Y-45716041D01*
X86837909Y-45964365D01*
X86594653Y-45964365D01*
X86594653Y-46202554D01*
X87081165Y-46202554D01*
X87081165Y-46932322D01*
G37*
G36*
X82702554Y-46202554D02*
G01*
X81972785Y-46202554D01*
X81972785Y-45472785D01*
X82702554Y-45472785D01*
X82702554Y-46202554D01*
G37*
G36*
X85621628Y-48883440D02*
G01*
X85373304Y-48883440D01*
X85373304Y-48635116D01*
X85621628Y-48635116D01*
X85621628Y-48883440D01*
G37*
G36*
X89027215Y-47423903D02*
G01*
X88783959Y-47423903D01*
X88783959Y-47662091D01*
X89513727Y-47662091D01*
X89513727Y-47910415D01*
X89390832Y-47910665D01*
X89388374Y-47910670D01*
X89343589Y-47910720D01*
X89293176Y-47910717D01*
X89241075Y-47910665D01*
X89191228Y-47910567D01*
X89147576Y-47910427D01*
X89027215Y-47909940D01*
X89027215Y-48153671D01*
X88778891Y-48153671D01*
X88778682Y-48033310D01*
X88778681Y-48032217D01*
X88778559Y-47988092D01*
X88778351Y-47937941D01*
X88778077Y-47885763D01*
X88777758Y-47835556D01*
X88777415Y-47791321D01*
X88776357Y-47669693D01*
X88535635Y-47666975D01*
X88535426Y-47546706D01*
X88535424Y-47545593D01*
X88535303Y-47501497D01*
X88535094Y-47451374D01*
X88534820Y-47399222D01*
X88534502Y-47349034D01*
X88534159Y-47304808D01*
X88533101Y-47183180D01*
X88289844Y-47182063D01*
X88257940Y-47181920D01*
X88202809Y-47181686D01*
X88147353Y-47181466D01*
X88093317Y-47181267D01*
X88042443Y-47181095D01*
X87996474Y-47180954D01*
X87957154Y-47180853D01*
X87926227Y-47180796D01*
X87805866Y-47180646D01*
X87805866Y-46932322D01*
X89027215Y-46932322D01*
X89027215Y-47423903D01*
G37*
G36*
X89027215Y-46202554D02*
G01*
X88297446Y-46202554D01*
X88297446Y-45472785D01*
X89027215Y-45472785D01*
X89027215Y-46202554D01*
G37*
%TD*%
%LPC*%
D11*
%TO.C,JPWR1*%
X75500000Y-52000000D03*
D12*
X75500000Y-54540000D03*
%TD*%
D11*
%TO.C,JUSB1*%
X81500000Y-54525000D03*
D12*
X84040000Y-54525000D03*
X86580000Y-54525000D03*
X89120000Y-54525000D03*
X91660000Y-54525000D03*
%TD*%
M02*
