%TF.GenerationSoftware,KiCad,Pcbnew,(6.0.5)*%
%TF.CreationDate,2023-04-14T11:36:58+02:00*%
%TF.ProjectId,keyboardbreakout2_framework,6b657962-6f61-4726-9462-7265616b6f75,rev?*%
%TF.SameCoordinates,Original*%
%TF.FileFunction,Copper,L1,Top*%
%TF.FilePolarity,Positive*%
%FSLAX46Y46*%
G04 Gerber Fmt 4.6, Leading zero omitted, Abs format (unit mm)*
G04 Created by KiCad (PCBNEW (6.0.5)) date 2023-04-14 11:36:58*
%MOMM*%
%LPD*%
G01*
G04 APERTURE LIST*
%TA.AperFunction,ComponentPad*%
%ADD10R,1.700000X1.700000*%
%TD*%
%TA.AperFunction,ComponentPad*%
%ADD11O,1.700000X1.700000*%
%TD*%
%TA.AperFunction,SMDPad,CuDef*%
%ADD12R,0.304800X1.600200*%
%TD*%
%TA.AperFunction,ViaPad*%
%ADD13C,0.800000*%
%TD*%
%TA.AperFunction,Conductor*%
%ADD14C,0.250000*%
%TD*%
G04 APERTURE END LIST*
D10*
%TO.P,JPWR1,1,Pin_1*%
%TO.N,GND*%
X75500000Y-52000000D03*
D11*
%TO.P,JPWR1,2,Pin_2*%
%TO.N,Net-(JPWR1-Pad2)*%
X75500000Y-54540000D03*
%TD*%
D10*
%TO.P,JUSB1,1,Pin_1*%
%TO.N,Net-(JUSB1-Pad1)*%
X81500000Y-54525000D03*
D11*
%TO.P,JUSB1,2,Pin_2*%
%TO.N,Net-(JUSB1-Pad2)*%
X84040000Y-54525000D03*
%TO.P,JUSB1,3,Pin_3*%
%TO.N,Net-(JUSB1-Pad3)*%
X86580000Y-54525000D03*
%TO.P,JUSB1,4,Pin_4*%
%TO.N,GND*%
X89120000Y-54525000D03*
%TO.P,JUSB1,5,Pin_5*%
X91660000Y-54525000D03*
%TD*%
D12*
%TO.P,U1,1,1*%
%TO.N,GND*%
X80500000Y-46500001D03*
%TO.P,U1,2,2*%
%TO.N,unconnected-(U1-Pad2)*%
X81000002Y-46500001D03*
%TO.P,U1,3,3*%
%TO.N,unconnected-(U1-Pad3)*%
X81500001Y-46500001D03*
%TO.P,U1,4,4*%
%TO.N,unconnected-(U1-Pad4)*%
X82000000Y-46500001D03*
%TO.P,U1,5,5*%
%TO.N,unconnected-(U1-Pad5)*%
X82500001Y-46500001D03*
%TO.P,U1,6,6*%
%TO.N,unconnected-(U1-Pad6)*%
X83000000Y-46500001D03*
%TO.P,U1,7,7*%
%TO.N,unconnected-(U1-Pad7)*%
X83500002Y-46500001D03*
%TO.P,U1,8,8*%
%TO.N,unconnected-(U1-Pad8)*%
X84000001Y-46500001D03*
%TO.P,U1,9,9*%
%TO.N,unconnected-(U1-Pad9)*%
X84500000Y-46500001D03*
%TO.P,U1,10,10*%
%TO.N,unconnected-(U1-Pad10)*%
X85000001Y-46500001D03*
%TO.P,U1,11,11*%
%TO.N,unconnected-(U1-Pad11)*%
X85500000Y-46500001D03*
%TO.P,U1,12,12*%
%TO.N,unconnected-(U1-Pad12)*%
X86000002Y-46500001D03*
%TO.P,U1,13,13*%
%TO.N,unconnected-(U1-Pad13)*%
X86500001Y-46500001D03*
%TO.P,U1,14,14*%
%TO.N,unconnected-(U1-Pad14)*%
X87000000Y-46500001D03*
%TO.P,U1,15,15*%
%TO.N,GND*%
X87500001Y-46500001D03*
%TO.P,U1,16,16*%
X88000000Y-46500001D03*
%TO.P,U1,17,17*%
X88500002Y-46500001D03*
%TO.P,U1,18,18*%
%TO.N,unconnected-(U1-Pad18)*%
X89000001Y-46500001D03*
%TO.P,U1,19,19*%
%TO.N,unconnected-(U1-Pad19)*%
X89500000Y-46500001D03*
%TO.P,U1,20,20*%
%TO.N,unconnected-(U1-Pad20)*%
X90000001Y-46500001D03*
%TO.P,U1,21,21*%
%TO.N,GND*%
X90500000Y-46500001D03*
%TO.P,U1,22,22*%
%TO.N,unconnected-(U1-Pad22)*%
X91000002Y-46500001D03*
%TO.P,U1,23,23*%
%TO.N,unconnected-(U1-Pad23)*%
X91500001Y-46500001D03*
%TO.P,U1,24,24*%
%TO.N,unconnected-(U1-Pad24)*%
X92000000Y-46500001D03*
%TO.P,U1,25,25*%
%TO.N,GND*%
X92500002Y-46500001D03*
%TO.P,U1,26,26*%
%TO.N,unconnected-(U1-Pad26)*%
X92500002Y-50099999D03*
%TO.P,U1,27,27*%
%TO.N,unconnected-(U1-Pad27)*%
X92000000Y-50099999D03*
%TO.P,U1,28,28*%
%TO.N,unconnected-(U1-Pad28)*%
X91500001Y-50099999D03*
%TO.P,U1,29,29*%
%TO.N,Net-(JPWR1-Pad2)*%
X91000002Y-50099999D03*
%TO.P,U1,30,30*%
%TO.N,Net-(JUSB1-Pad3)*%
X90500000Y-50099999D03*
%TO.P,U1,31,31*%
%TO.N,Net-(JUSB1-Pad2)*%
X90000001Y-50099999D03*
%TO.P,U1,32,32*%
%TO.N,Net-(JUSB1-Pad1)*%
X89500000Y-50099999D03*
%TO.P,U1,33,33*%
%TO.N,unconnected-(U1-Pad33)*%
X89000001Y-50099999D03*
%TO.P,U1,34,34*%
%TO.N,unconnected-(U1-Pad34)*%
X88500002Y-50099999D03*
%TO.P,U1,35,35*%
%TO.N,unconnected-(U1-Pad35)*%
X88000000Y-50099999D03*
%TO.P,U1,36,36*%
%TO.N,unconnected-(U1-Pad36)*%
X87500001Y-50099999D03*
%TO.P,U1,37,37*%
%TO.N,unconnected-(U1-Pad37)*%
X87000000Y-50099999D03*
%TO.P,U1,38,38*%
%TO.N,GND*%
X86500001Y-50099999D03*
%TO.P,U1,39,39*%
%TO.N,unconnected-(U1-Pad39)*%
X86000002Y-50099999D03*
%TO.P,U1,40,40*%
%TO.N,unconnected-(U1-Pad40)*%
X85500000Y-50099999D03*
%TO.P,U1,41,41*%
%TO.N,unconnected-(U1-Pad41)*%
X85000001Y-50099999D03*
%TO.P,U1,42,42*%
%TO.N,unconnected-(U1-Pad42)*%
X84500000Y-50099999D03*
%TO.P,U1,43,43*%
%TO.N,unconnected-(U1-Pad43)*%
X84000001Y-50099999D03*
%TO.P,U1,44,44*%
%TO.N,unconnected-(U1-Pad44)*%
X83500002Y-50099999D03*
%TO.P,U1,45,45*%
%TO.N,unconnected-(U1-Pad45)*%
X83000000Y-50099999D03*
%TO.P,U1,46,46*%
%TO.N,unconnected-(U1-Pad46)*%
X82500001Y-50099999D03*
%TO.P,U1,47,47*%
%TO.N,unconnected-(U1-Pad47)*%
X82000000Y-50099999D03*
%TO.P,U1,48,48*%
%TO.N,unconnected-(U1-Pad48)*%
X81500001Y-50099999D03*
%TO.P,U1,49,49*%
%TO.N,unconnected-(U1-Pad49)*%
X81000002Y-50099999D03*
%TO.P,U1,50,50*%
%TO.N,unconnected-(U1-Pad50)*%
X80500000Y-50099999D03*
%TD*%
D13*
%TO.N,Net-(JPWR1-Pad2)*%
X90500000Y-52500000D03*
%TD*%
D14*
%TO.N,Net-(JPWR1-Pad2)*%
X91000002Y-50499998D02*
X91000002Y-50099999D01*
X90500000Y-52500000D02*
X91000000Y-52000000D01*
X91000000Y-52000000D02*
X91000000Y-50500000D01*
X91000000Y-50500000D02*
X91000002Y-50499998D01*
%TO.N,Net-(JUSB1-Pad3)*%
X90500000Y-51333978D02*
X90500000Y-50099999D01*
X87308978Y-54525000D02*
X90500000Y-51333978D01*
X86580000Y-54525000D02*
X87308978Y-54525000D01*
%TO.N,Net-(JUSB1-Pad2)*%
X90000001Y-51150099D02*
X90000001Y-50099999D01*
X87799611Y-53350489D02*
X90000001Y-51150099D01*
X85214511Y-53350489D02*
X87799611Y-53350489D01*
X84040000Y-54525000D02*
X85214511Y-53350489D01*
%TO.N,Net-(JUSB1-Pad1)*%
X81500000Y-54525000D02*
X84800390Y-51224610D01*
X84800390Y-51224610D02*
X89289786Y-51224610D01*
X89289786Y-51224610D02*
X89500000Y-51014396D01*
X89500000Y-51014396D02*
X89500000Y-50099999D01*
%TO.N,GND*%
X86500000Y-48500000D02*
X86550762Y-48550762D01*
X86500001Y-50099999D02*
X86500001Y-48601522D01*
X91550761Y-48550762D02*
X90449238Y-48550762D01*
X90500000Y-46500001D02*
X90500000Y-48500000D01*
X80500000Y-48000000D02*
X81000000Y-48500000D01*
X88500002Y-48499998D02*
X88449238Y-48550762D01*
X90449238Y-48550762D02*
X88050762Y-48550762D01*
X90500000Y-48500000D02*
X90449238Y-48550762D01*
X88050762Y-48550762D02*
X86550762Y-48550762D01*
X86500001Y-48601522D02*
X86550762Y-48550762D01*
X86550762Y-48550762D02*
X87500001Y-47601522D01*
X80500000Y-46500001D02*
X80500000Y-48000000D01*
X88449238Y-48550762D02*
X88050762Y-48550762D01*
X81000000Y-48500000D02*
X86500000Y-48500000D01*
X88000000Y-48500000D02*
X88050762Y-48550762D01*
X88000000Y-46500001D02*
X88000000Y-48500000D01*
X88500002Y-46500001D02*
X88500002Y-48499998D01*
X87500001Y-47601522D02*
X87500001Y-46500001D01*
X92500002Y-47601521D02*
X91550761Y-48550762D01*
X92500002Y-46500001D02*
X92500002Y-47601521D01*
%TD*%
%TA.AperFunction,Conductor*%
%TO.N,GND*%
G36*
X80120001Y-45028502D02*
G01*
X80166494Y-45082158D01*
X80176598Y-45152432D01*
X80147104Y-45217012D01*
X80112389Y-45245020D01*
X80093954Y-45255113D01*
X79991876Y-45331616D01*
X79979315Y-45344177D01*
X79902814Y-45446252D01*
X79894276Y-45461847D01*
X79849122Y-45582295D01*
X79845495Y-45597550D01*
X79839969Y-45648415D01*
X79839600Y-45655229D01*
X79839600Y-46329486D01*
X79844075Y-46344725D01*
X79845465Y-46345930D01*
X79853148Y-46347601D01*
X80213102Y-46347601D01*
X80281223Y-46367603D01*
X80327716Y-46421259D01*
X80339102Y-46473601D01*
X80339102Y-46526401D01*
X80319100Y-46594522D01*
X80265444Y-46641015D01*
X80213102Y-46652401D01*
X79857716Y-46652401D01*
X79842477Y-46656876D01*
X79841272Y-46658266D01*
X79839601Y-46665949D01*
X79839601Y-47344770D01*
X79839971Y-47351591D01*
X79845495Y-47402453D01*
X79849121Y-47417705D01*
X79894276Y-47538155D01*
X79902814Y-47553750D01*
X79979315Y-47655825D01*
X79991876Y-47668386D01*
X80093951Y-47744887D01*
X80109546Y-47753425D01*
X80229994Y-47798579D01*
X80245249Y-47802206D01*
X80296114Y-47807732D01*
X80302928Y-47808101D01*
X80329485Y-47808101D01*
X80344724Y-47803626D01*
X80345930Y-47802234D01*
X80349607Y-47785333D01*
X80383632Y-47723020D01*
X80445944Y-47688995D01*
X80516760Y-47694060D01*
X80548286Y-47711286D01*
X80600897Y-47750716D01*
X80604235Y-47751967D01*
X80652458Y-47800297D01*
X80653167Y-47802011D01*
X80658265Y-47806429D01*
X80665948Y-47808100D01*
X80697069Y-47808100D01*
X80703893Y-47807730D01*
X80734070Y-47804453D01*
X80761281Y-47804453D01*
X80796069Y-47808232D01*
X80796073Y-47808232D01*
X80799468Y-47808601D01*
X81200536Y-47808601D01*
X81203928Y-47808232D01*
X81203937Y-47808232D01*
X81236395Y-47804706D01*
X81263609Y-47804706D01*
X81296067Y-47808232D01*
X81296074Y-47808232D01*
X81299467Y-47808601D01*
X81700535Y-47808601D01*
X81703927Y-47808232D01*
X81703936Y-47808232D01*
X81736394Y-47804706D01*
X81763608Y-47804706D01*
X81796066Y-47808232D01*
X81796073Y-47808232D01*
X81799466Y-47808601D01*
X82200534Y-47808601D01*
X82236396Y-47804705D01*
X82263606Y-47804705D01*
X82299467Y-47808601D01*
X82700535Y-47808601D01*
X82703927Y-47808232D01*
X82703936Y-47808232D01*
X82736394Y-47804706D01*
X82763608Y-47804706D01*
X82796066Y-47808232D01*
X82796073Y-47808232D01*
X82799466Y-47808601D01*
X83200534Y-47808601D01*
X83236396Y-47804705D01*
X83263606Y-47804705D01*
X83299468Y-47808601D01*
X83700536Y-47808601D01*
X83703928Y-47808232D01*
X83703937Y-47808232D01*
X83736395Y-47804706D01*
X83763609Y-47804706D01*
X83796067Y-47808232D01*
X83796074Y-47808232D01*
X83799467Y-47808601D01*
X84200535Y-47808601D01*
X84203927Y-47808232D01*
X84203936Y-47808232D01*
X84236394Y-47804706D01*
X84263608Y-47804706D01*
X84296066Y-47808232D01*
X84296073Y-47808232D01*
X84299466Y-47808601D01*
X84700534Y-47808601D01*
X84736396Y-47804705D01*
X84763606Y-47804705D01*
X84799467Y-47808601D01*
X85200535Y-47808601D01*
X85203927Y-47808232D01*
X85203936Y-47808232D01*
X85236394Y-47804706D01*
X85263608Y-47804706D01*
X85296066Y-47808232D01*
X85296073Y-47808232D01*
X85299466Y-47808601D01*
X85700534Y-47808601D01*
X85736396Y-47804705D01*
X85763606Y-47804705D01*
X85799468Y-47808601D01*
X86200536Y-47808601D01*
X86203928Y-47808232D01*
X86203937Y-47808232D01*
X86236395Y-47804706D01*
X86263609Y-47804706D01*
X86296067Y-47808232D01*
X86296074Y-47808232D01*
X86299467Y-47808601D01*
X86700535Y-47808601D01*
X86703927Y-47808232D01*
X86703936Y-47808232D01*
X86736394Y-47804706D01*
X86763608Y-47804706D01*
X86796066Y-47808232D01*
X86796073Y-47808232D01*
X86799466Y-47808601D01*
X87200534Y-47808601D01*
X87238718Y-47804453D01*
X87265932Y-47804453D01*
X87296115Y-47807732D01*
X87302930Y-47808101D01*
X87329486Y-47808101D01*
X87344725Y-47803626D01*
X87366990Y-47777931D01*
X87368183Y-47778965D01*
X87373632Y-47768986D01*
X87396912Y-47751538D01*
X87399105Y-47750716D01*
X87451962Y-47711102D01*
X87518466Y-47686255D01*
X87587848Y-47701308D01*
X87638079Y-47751482D01*
X87648421Y-47776430D01*
X87656876Y-47805224D01*
X87658266Y-47806429D01*
X87665949Y-47808100D01*
X87697071Y-47808100D01*
X87703886Y-47807731D01*
X87736389Y-47804200D01*
X87763607Y-47804200D01*
X87796118Y-47807732D01*
X87802927Y-47808101D01*
X87829485Y-47808101D01*
X87844724Y-47803626D01*
X87845929Y-47802236D01*
X87847600Y-47794553D01*
X87847600Y-46670516D01*
X87843125Y-46655277D01*
X87841735Y-46654072D01*
X87834052Y-46652401D01*
X87786900Y-46652401D01*
X87718779Y-46632399D01*
X87672286Y-46578743D01*
X87660900Y-46526401D01*
X87660900Y-46473601D01*
X87680902Y-46405480D01*
X87734558Y-46358987D01*
X87786900Y-46347601D01*
X88213101Y-46347601D01*
X88281222Y-46367603D01*
X88327715Y-46421259D01*
X88339101Y-46473601D01*
X88339101Y-46526401D01*
X88319099Y-46594522D01*
X88265443Y-46641015D01*
X88213101Y-46652401D01*
X88170515Y-46652401D01*
X88155276Y-46656876D01*
X88154071Y-46658266D01*
X88152400Y-46665949D01*
X88152400Y-47789985D01*
X88156875Y-47805224D01*
X88158265Y-47806429D01*
X88165948Y-47808100D01*
X88197070Y-47808100D01*
X88203888Y-47807731D01*
X88236392Y-47804200D01*
X88263607Y-47804200D01*
X88296119Y-47807732D01*
X88302930Y-47808101D01*
X88329487Y-47808101D01*
X88344726Y-47803626D01*
X88345931Y-47802236D01*
X88349607Y-47785336D01*
X88383632Y-47723023D01*
X88445944Y-47688998D01*
X88516759Y-47694062D01*
X88548292Y-47711292D01*
X88600896Y-47750716D01*
X88604237Y-47751969D01*
X88652461Y-47800301D01*
X88653168Y-47802010D01*
X88658267Y-47806429D01*
X88665950Y-47808100D01*
X88697071Y-47808100D01*
X88703895Y-47807730D01*
X88734071Y-47804453D01*
X88761282Y-47804453D01*
X88796068Y-47808232D01*
X88796072Y-47808232D01*
X88799467Y-47808601D01*
X89200535Y-47808601D01*
X89203927Y-47808232D01*
X89203936Y-47808232D01*
X89236394Y-47804706D01*
X89263608Y-47804706D01*
X89296066Y-47808232D01*
X89296073Y-47808232D01*
X89299466Y-47808601D01*
X89700534Y-47808601D01*
X89736396Y-47804705D01*
X89763606Y-47804705D01*
X89799467Y-47808601D01*
X90200535Y-47808601D01*
X90238719Y-47804453D01*
X90265932Y-47804453D01*
X90296114Y-47807732D01*
X90302928Y-47808101D01*
X90329485Y-47808101D01*
X90344724Y-47803626D01*
X90366989Y-47777931D01*
X90368184Y-47778967D01*
X90373639Y-47768979D01*
X90396910Y-47751539D01*
X90399106Y-47750716D01*
X90420389Y-47734765D01*
X90424438Y-47731731D01*
X90490945Y-47706884D01*
X90560327Y-47721938D01*
X90575560Y-47731727D01*
X90600897Y-47750716D01*
X90604235Y-47751967D01*
X90652458Y-47800297D01*
X90653167Y-47802011D01*
X90658265Y-47806429D01*
X90665948Y-47808100D01*
X90697069Y-47808100D01*
X90703893Y-47807730D01*
X90734070Y-47804453D01*
X90761281Y-47804453D01*
X90796069Y-47808232D01*
X90796073Y-47808232D01*
X90799468Y-47808601D01*
X91200536Y-47808601D01*
X91203928Y-47808232D01*
X91203937Y-47808232D01*
X91236395Y-47804706D01*
X91263609Y-47804706D01*
X91296067Y-47808232D01*
X91296074Y-47808232D01*
X91299467Y-47808601D01*
X91700535Y-47808601D01*
X91703927Y-47808232D01*
X91703936Y-47808232D01*
X91736394Y-47804706D01*
X91763608Y-47804706D01*
X91796066Y-47808232D01*
X91796073Y-47808232D01*
X91799466Y-47808601D01*
X92200534Y-47808601D01*
X92208534Y-47807732D01*
X92231620Y-47805224D01*
X92238718Y-47804453D01*
X92265933Y-47804453D01*
X92296116Y-47807732D01*
X92302931Y-47808101D01*
X92329487Y-47808101D01*
X92344726Y-47803626D01*
X92366991Y-47777931D01*
X92368182Y-47778963D01*
X92373625Y-47768993D01*
X92396914Y-47751537D01*
X92399105Y-47750716D01*
X92451964Y-47711101D01*
X92518466Y-47686254D01*
X92587849Y-47701306D01*
X92638080Y-47751480D01*
X92648422Y-47776430D01*
X92656877Y-47805224D01*
X92658267Y-47806429D01*
X92665950Y-47808100D01*
X92697071Y-47808100D01*
X92703892Y-47807730D01*
X92754754Y-47802206D01*
X92770006Y-47798580D01*
X92890456Y-47753425D01*
X92906051Y-47744887D01*
X93008126Y-47668386D01*
X93020687Y-47655825D01*
X93097188Y-47553750D01*
X93105726Y-47538155D01*
X93150880Y-47417707D01*
X93154507Y-47402452D01*
X93160033Y-47351587D01*
X93160402Y-47344773D01*
X93160402Y-46670516D01*
X93155927Y-46655277D01*
X93154537Y-46654072D01*
X93146854Y-46652401D01*
X92786900Y-46652401D01*
X92718779Y-46632399D01*
X92672286Y-46578743D01*
X92660900Y-46526401D01*
X92660900Y-46473601D01*
X92680902Y-46405480D01*
X92734558Y-46358987D01*
X92786900Y-46347601D01*
X93142286Y-46347601D01*
X93157525Y-46343126D01*
X93158730Y-46341736D01*
X93160401Y-46334053D01*
X93160401Y-45655232D01*
X93160031Y-45648411D01*
X93154507Y-45597549D01*
X93150881Y-45582297D01*
X93105726Y-45461847D01*
X93097188Y-45446252D01*
X93020687Y-45344177D01*
X93008126Y-45331616D01*
X92906048Y-45255113D01*
X92887613Y-45245020D01*
X92837467Y-45194761D01*
X92822453Y-45125370D01*
X92847338Y-45058878D01*
X92904222Y-45016395D01*
X92948122Y-45008500D01*
X93865500Y-45008500D01*
X93933621Y-45028502D01*
X93980114Y-45082158D01*
X93991500Y-45134500D01*
X93991500Y-56365500D01*
X93971498Y-56433621D01*
X93917842Y-56480114D01*
X93865500Y-56491500D01*
X73634500Y-56491500D01*
X73566379Y-56471498D01*
X73519886Y-56417842D01*
X73508500Y-56365500D01*
X73508500Y-54506695D01*
X74137251Y-54506695D01*
X74137548Y-54511848D01*
X74137548Y-54511851D01*
X74143011Y-54606590D01*
X74150110Y-54729715D01*
X74151247Y-54734761D01*
X74151248Y-54734767D01*
X74164270Y-54792548D01*
X74199222Y-54947639D01*
X74283266Y-55154616D01*
X74301494Y-55184362D01*
X74388099Y-55325688D01*
X74399987Y-55345088D01*
X74546250Y-55513938D01*
X74718126Y-55656632D01*
X74911000Y-55769338D01*
X75119692Y-55849030D01*
X75124760Y-55850061D01*
X75124763Y-55850062D01*
X75170627Y-55859393D01*
X75338597Y-55893567D01*
X75343772Y-55893757D01*
X75343774Y-55893757D01*
X75556673Y-55901564D01*
X75556677Y-55901564D01*
X75561837Y-55901753D01*
X75566957Y-55901097D01*
X75566959Y-55901097D01*
X75778288Y-55874025D01*
X75778289Y-55874025D01*
X75783416Y-55873368D01*
X75829997Y-55859393D01*
X75992429Y-55810661D01*
X75992434Y-55810659D01*
X75997384Y-55809174D01*
X76197994Y-55710896D01*
X76379860Y-55581173D01*
X76392285Y-55568792D01*
X76495321Y-55466115D01*
X76538096Y-55423489D01*
X76551891Y-55404292D01*
X76665435Y-55246277D01*
X76668453Y-55242077D01*
X76673437Y-55231994D01*
X76765136Y-55046453D01*
X76765137Y-55046451D01*
X76767430Y-55041811D01*
X76832370Y-54828069D01*
X76861529Y-54606590D01*
X76863156Y-54540000D01*
X76844852Y-54317361D01*
X76790431Y-54100702D01*
X76701354Y-53895840D01*
X76580014Y-53708277D01*
X76576540Y-53704459D01*
X76576533Y-53704450D01*
X76432435Y-53546088D01*
X76401383Y-53482242D01*
X76409779Y-53411744D01*
X76454956Y-53356976D01*
X76481400Y-53343307D01*
X76588052Y-53303325D01*
X76603649Y-53294786D01*
X76705724Y-53218285D01*
X76718285Y-53205724D01*
X76794786Y-53103649D01*
X76803324Y-53088054D01*
X76848478Y-52967606D01*
X76852105Y-52952351D01*
X76857631Y-52901486D01*
X76858000Y-52894672D01*
X76858000Y-52272115D01*
X76853525Y-52256876D01*
X76852135Y-52255671D01*
X76844452Y-52254000D01*
X74160116Y-52254000D01*
X74144877Y-52258475D01*
X74143672Y-52259865D01*
X74142001Y-52267548D01*
X74142001Y-52894669D01*
X74142371Y-52901490D01*
X74147895Y-52952352D01*
X74151521Y-52967604D01*
X74196676Y-53088054D01*
X74205214Y-53103649D01*
X74281715Y-53205724D01*
X74294276Y-53218285D01*
X74396351Y-53294786D01*
X74411946Y-53303324D01*
X74520827Y-53344142D01*
X74577591Y-53386784D01*
X74602291Y-53453345D01*
X74587083Y-53522694D01*
X74567691Y-53549175D01*
X74450578Y-53671727D01*
X74440629Y-53682138D01*
X74314743Y-53866680D01*
X74220688Y-54069305D01*
X74160989Y-54284570D01*
X74137251Y-54506695D01*
X73508500Y-54506695D01*
X73508500Y-51727885D01*
X74142000Y-51727885D01*
X74146475Y-51743124D01*
X74147865Y-51744329D01*
X74155548Y-51746000D01*
X75227885Y-51746000D01*
X75243124Y-51741525D01*
X75244329Y-51740135D01*
X75246000Y-51732452D01*
X75246000Y-51727885D01*
X75754000Y-51727885D01*
X75758475Y-51743124D01*
X75759865Y-51744329D01*
X75767548Y-51746000D01*
X76839884Y-51746000D01*
X76855123Y-51741525D01*
X76856328Y-51740135D01*
X76857999Y-51732452D01*
X76857999Y-51105331D01*
X76857629Y-51098510D01*
X76852105Y-51047648D01*
X76848479Y-51032396D01*
X76816927Y-50948233D01*
X79839100Y-50948233D01*
X79845855Y-51010415D01*
X79896985Y-51146804D01*
X79984339Y-51263360D01*
X80100895Y-51350714D01*
X80237284Y-51401844D01*
X80299466Y-51408599D01*
X80700534Y-51408599D01*
X80736396Y-51404703D01*
X80763606Y-51404703D01*
X80799468Y-51408599D01*
X81200536Y-51408599D01*
X81203928Y-51408230D01*
X81203937Y-51408230D01*
X81236395Y-51404704D01*
X81263609Y-51404704D01*
X81296067Y-51408230D01*
X81296074Y-51408230D01*
X81299467Y-51408599D01*
X81700535Y-51408599D01*
X81703927Y-51408230D01*
X81703936Y-51408230D01*
X81736394Y-51404704D01*
X81763608Y-51404704D01*
X81796066Y-51408230D01*
X81796073Y-51408230D01*
X81799466Y-51408599D01*
X82200534Y-51408599D01*
X82236396Y-51404703D01*
X82263606Y-51404703D01*
X82299467Y-51408599D01*
X82700535Y-51408599D01*
X82703927Y-51408230D01*
X82703936Y-51408230D01*
X82736394Y-51404704D01*
X82763608Y-51404704D01*
X82796066Y-51408230D01*
X82796073Y-51408230D01*
X82799466Y-51408599D01*
X83200534Y-51408599D01*
X83236396Y-51404703D01*
X83263606Y-51404703D01*
X83299468Y-51408599D01*
X83416306Y-51408599D01*
X83484427Y-51428601D01*
X83530920Y-51482257D01*
X83541024Y-51552531D01*
X83511530Y-51617111D01*
X83505401Y-51623694D01*
X81999500Y-53129595D01*
X81937188Y-53163621D01*
X81910405Y-53166500D01*
X80601866Y-53166500D01*
X80539684Y-53173255D01*
X80403295Y-53224385D01*
X80286739Y-53311739D01*
X80199385Y-53428295D01*
X80148255Y-53564684D01*
X80141500Y-53626866D01*
X80141500Y-55423134D01*
X80148255Y-55485316D01*
X80199385Y-55621705D01*
X80286739Y-55738261D01*
X80403295Y-55825615D01*
X80539684Y-55876745D01*
X80601866Y-55883500D01*
X82398134Y-55883500D01*
X82460316Y-55876745D01*
X82596705Y-55825615D01*
X82713261Y-55738261D01*
X82800615Y-55621705D01*
X82822799Y-55562529D01*
X82844598Y-55504382D01*
X82887240Y-55447618D01*
X82953802Y-55422918D01*
X83023150Y-55438126D01*
X83057817Y-55466114D01*
X83086250Y-55498938D01*
X83258126Y-55641632D01*
X83451000Y-55754338D01*
X83659692Y-55834030D01*
X83664760Y-55835061D01*
X83664763Y-55835062D01*
X83738491Y-55850062D01*
X83878597Y-55878567D01*
X83883772Y-55878757D01*
X83883774Y-55878757D01*
X84096673Y-55886564D01*
X84096677Y-55886564D01*
X84101837Y-55886753D01*
X84106957Y-55886097D01*
X84106959Y-55886097D01*
X84318288Y-55859025D01*
X84318289Y-55859025D01*
X84323416Y-55858368D01*
X84328366Y-55856883D01*
X84532429Y-55795661D01*
X84532434Y-55795659D01*
X84537384Y-55794174D01*
X84737994Y-55695896D01*
X84919860Y-55566173D01*
X85078096Y-55408489D01*
X85208453Y-55227077D01*
X85209776Y-55228028D01*
X85256645Y-55184857D01*
X85326580Y-55172625D01*
X85392026Y-55200144D01*
X85419875Y-55231994D01*
X85479987Y-55330088D01*
X85626250Y-55498938D01*
X85798126Y-55641632D01*
X85991000Y-55754338D01*
X86199692Y-55834030D01*
X86204760Y-55835061D01*
X86204763Y-55835062D01*
X86278491Y-55850062D01*
X86418597Y-55878567D01*
X86423772Y-55878757D01*
X86423774Y-55878757D01*
X86636673Y-55886564D01*
X86636677Y-55886564D01*
X86641837Y-55886753D01*
X86646957Y-55886097D01*
X86646959Y-55886097D01*
X86858288Y-55859025D01*
X86858289Y-55859025D01*
X86863416Y-55858368D01*
X86868366Y-55856883D01*
X87072429Y-55795661D01*
X87072434Y-55795659D01*
X87077384Y-55794174D01*
X87277994Y-55695896D01*
X87459860Y-55566173D01*
X87618096Y-55408489D01*
X87748453Y-55227077D01*
X87749640Y-55227930D01*
X87796960Y-55184362D01*
X87866897Y-55172145D01*
X87932338Y-55199678D01*
X87960166Y-55231511D01*
X88017694Y-55325388D01*
X88023777Y-55333699D01*
X88163213Y-55494667D01*
X88170580Y-55501883D01*
X88334434Y-55637916D01*
X88342881Y-55643831D01*
X88526756Y-55751279D01*
X88536042Y-55755729D01*
X88735001Y-55831703D01*
X88744899Y-55834579D01*
X88848250Y-55855606D01*
X88862299Y-55854410D01*
X88866000Y-55844065D01*
X88866000Y-55843517D01*
X89374000Y-55843517D01*
X89378064Y-55857359D01*
X89391478Y-55859393D01*
X89398184Y-55858534D01*
X89408262Y-55856392D01*
X89612255Y-55795191D01*
X89621842Y-55791433D01*
X89813095Y-55697739D01*
X89821945Y-55692464D01*
X89995328Y-55568792D01*
X90003200Y-55562139D01*
X90154052Y-55411812D01*
X90160730Y-55403965D01*
X90288022Y-55226819D01*
X90289147Y-55227627D01*
X90336669Y-55183876D01*
X90406607Y-55171661D01*
X90472046Y-55199197D01*
X90499870Y-55231028D01*
X90557690Y-55325383D01*
X90563777Y-55333699D01*
X90703213Y-55494667D01*
X90710580Y-55501883D01*
X90874434Y-55637916D01*
X90882881Y-55643831D01*
X91066756Y-55751279D01*
X91076042Y-55755729D01*
X91275001Y-55831703D01*
X91284899Y-55834579D01*
X91388250Y-55855606D01*
X91402299Y-55854410D01*
X91406000Y-55844065D01*
X91406000Y-55843517D01*
X91914000Y-55843517D01*
X91918064Y-55857359D01*
X91931478Y-55859393D01*
X91938184Y-55858534D01*
X91948262Y-55856392D01*
X92152255Y-55795191D01*
X92161842Y-55791433D01*
X92353095Y-55697739D01*
X92361945Y-55692464D01*
X92535328Y-55568792D01*
X92543200Y-55562139D01*
X92694052Y-55411812D01*
X92700730Y-55403965D01*
X92825003Y-55231020D01*
X92830313Y-55222183D01*
X92924670Y-55031267D01*
X92928469Y-55021672D01*
X92990377Y-54817910D01*
X92992555Y-54807837D01*
X92993986Y-54796962D01*
X92991775Y-54782778D01*
X92978617Y-54779000D01*
X91932115Y-54779000D01*
X91916876Y-54783475D01*
X91915671Y-54784865D01*
X91914000Y-54792548D01*
X91914000Y-55843517D01*
X91406000Y-55843517D01*
X91406000Y-54797115D01*
X91401525Y-54781876D01*
X91400135Y-54780671D01*
X91392452Y-54779000D01*
X89392115Y-54779000D01*
X89376876Y-54783475D01*
X89375671Y-54784865D01*
X89374000Y-54792548D01*
X89374000Y-55843517D01*
X88866000Y-55843517D01*
X88866000Y-54397000D01*
X88886002Y-54328879D01*
X88939658Y-54282386D01*
X88992000Y-54271000D01*
X91387885Y-54271000D01*
X91403124Y-54266525D01*
X91404329Y-54265135D01*
X91406000Y-54257452D01*
X91406000Y-54252885D01*
X91914000Y-54252885D01*
X91918475Y-54268124D01*
X91919865Y-54269329D01*
X91927548Y-54271000D01*
X92978344Y-54271000D01*
X92991875Y-54267027D01*
X92993180Y-54257947D01*
X92951214Y-54090875D01*
X92947894Y-54081124D01*
X92862972Y-53885814D01*
X92858105Y-53876739D01*
X92742426Y-53697926D01*
X92736136Y-53689757D01*
X92592806Y-53532240D01*
X92585273Y-53525215D01*
X92418139Y-53393222D01*
X92409552Y-53387517D01*
X92223117Y-53284599D01*
X92213705Y-53280369D01*
X92012959Y-53209280D01*
X92002988Y-53206646D01*
X91931837Y-53193972D01*
X91918540Y-53195432D01*
X91914000Y-53209989D01*
X91914000Y-54252885D01*
X91406000Y-54252885D01*
X91406000Y-53208102D01*
X91402082Y-53194758D01*
X91387809Y-53192771D01*
X91385316Y-53193153D01*
X91314954Y-53183687D01*
X91260878Y-53137683D01*
X91240259Y-53069746D01*
X91257135Y-53005603D01*
X91331223Y-52877279D01*
X91331224Y-52877278D01*
X91334527Y-52871556D01*
X91393542Y-52689928D01*
X91410836Y-52525385D01*
X91437849Y-52459729D01*
X91444295Y-52452305D01*
X91453644Y-52442349D01*
X91456400Y-52439505D01*
X91476135Y-52419770D01*
X91478615Y-52416573D01*
X91486320Y-52407551D01*
X91511159Y-52381100D01*
X91516586Y-52375321D01*
X91520405Y-52368375D01*
X91520407Y-52368372D01*
X91526348Y-52357566D01*
X91537199Y-52341047D01*
X91544758Y-52331301D01*
X91549614Y-52325041D01*
X91552759Y-52317772D01*
X91552762Y-52317768D01*
X91567174Y-52284463D01*
X91572391Y-52273813D01*
X91593695Y-52235060D01*
X91598733Y-52215437D01*
X91605137Y-52196734D01*
X91610033Y-52185420D01*
X91610033Y-52185419D01*
X91613181Y-52178145D01*
X91614420Y-52170322D01*
X91614423Y-52170312D01*
X91620099Y-52134476D01*
X91622505Y-52122856D01*
X91631528Y-52087711D01*
X91631528Y-52087710D01*
X91633500Y-52080030D01*
X91633500Y-52059776D01*
X91635051Y-52040065D01*
X91636980Y-52027886D01*
X91638220Y-52020057D01*
X91634059Y-51976038D01*
X91633500Y-51964181D01*
X91633500Y-51530999D01*
X91653502Y-51462878D01*
X91707158Y-51416385D01*
X91773107Y-51405736D01*
X91796065Y-51408230D01*
X91796074Y-51408230D01*
X91799466Y-51408599D01*
X92200534Y-51408599D01*
X92236396Y-51404703D01*
X92263606Y-51404703D01*
X92299468Y-51408599D01*
X92700536Y-51408599D01*
X92762718Y-51401844D01*
X92899107Y-51350714D01*
X93015663Y-51263360D01*
X93103017Y-51146804D01*
X93154147Y-51010415D01*
X93160902Y-50948233D01*
X93160902Y-49251765D01*
X93154147Y-49189583D01*
X93103017Y-49053194D01*
X93015663Y-48936638D01*
X92899107Y-48849284D01*
X92762718Y-48798154D01*
X92700536Y-48791399D01*
X92299468Y-48791399D01*
X92263606Y-48795295D01*
X92236396Y-48795295D01*
X92200534Y-48791399D01*
X91799466Y-48791399D01*
X91796073Y-48791768D01*
X91796066Y-48791768D01*
X91763608Y-48795294D01*
X91736394Y-48795294D01*
X91703936Y-48791768D01*
X91703927Y-48791768D01*
X91700535Y-48791399D01*
X91299467Y-48791399D01*
X91296074Y-48791768D01*
X91296067Y-48791768D01*
X91263609Y-48795294D01*
X91236395Y-48795294D01*
X91203937Y-48791768D01*
X91203928Y-48791768D01*
X91200536Y-48791399D01*
X90799468Y-48791399D01*
X90763606Y-48795295D01*
X90736396Y-48795295D01*
X90700534Y-48791399D01*
X90299466Y-48791399D01*
X90296073Y-48791768D01*
X90296066Y-48791768D01*
X90263608Y-48795294D01*
X90236394Y-48795294D01*
X90203936Y-48791768D01*
X90203927Y-48791768D01*
X90200535Y-48791399D01*
X89799467Y-48791399D01*
X89763606Y-48795295D01*
X89736396Y-48795295D01*
X89700534Y-48791399D01*
X89299466Y-48791399D01*
X89296073Y-48791768D01*
X89296066Y-48791768D01*
X89263608Y-48795294D01*
X89236394Y-48795294D01*
X89203936Y-48791768D01*
X89203927Y-48791768D01*
X89200535Y-48791399D01*
X88799467Y-48791399D01*
X88796074Y-48791768D01*
X88796067Y-48791768D01*
X88763609Y-48795294D01*
X88736395Y-48795294D01*
X88703937Y-48791768D01*
X88703928Y-48791768D01*
X88700536Y-48791399D01*
X88299468Y-48791399D01*
X88263606Y-48795295D01*
X88236396Y-48795295D01*
X88200534Y-48791399D01*
X87799466Y-48791399D01*
X87796073Y-48791768D01*
X87796066Y-48791768D01*
X87763608Y-48795294D01*
X87736394Y-48795294D01*
X87703936Y-48791768D01*
X87703927Y-48791768D01*
X87700535Y-48791399D01*
X87299467Y-48791399D01*
X87263606Y-48795295D01*
X87236396Y-48795295D01*
X87200534Y-48791399D01*
X86799466Y-48791399D01*
X86761282Y-48795547D01*
X86734069Y-48795547D01*
X86703887Y-48792268D01*
X86697073Y-48791899D01*
X86670516Y-48791899D01*
X86655277Y-48796374D01*
X86633012Y-48822069D01*
X86631817Y-48821033D01*
X86626362Y-48831021D01*
X86603091Y-48848461D01*
X86600895Y-48849284D01*
X86593712Y-48854668D01*
X86593711Y-48854668D01*
X86575566Y-48868267D01*
X86509059Y-48893115D01*
X86439677Y-48878062D01*
X86424436Y-48868267D01*
X86406291Y-48854668D01*
X86406290Y-48854668D01*
X86399107Y-48849284D01*
X86395766Y-48848031D01*
X86347542Y-48799699D01*
X86346835Y-48797990D01*
X86341736Y-48793571D01*
X86334053Y-48791900D01*
X86302932Y-48791900D01*
X86296108Y-48792270D01*
X86265932Y-48795547D01*
X86238721Y-48795547D01*
X86203935Y-48791768D01*
X86203931Y-48791768D01*
X86200536Y-48791399D01*
X85799468Y-48791399D01*
X85763606Y-48795295D01*
X85736396Y-48795295D01*
X85700534Y-48791399D01*
X85299466Y-48791399D01*
X85296073Y-48791768D01*
X85296066Y-48791768D01*
X85263608Y-48795294D01*
X85236394Y-48795294D01*
X85203936Y-48791768D01*
X85203927Y-48791768D01*
X85200535Y-48791399D01*
X84799467Y-48791399D01*
X84763606Y-48795295D01*
X84736396Y-48795295D01*
X84700534Y-48791399D01*
X84299466Y-48791399D01*
X84296073Y-48791768D01*
X84296066Y-48791768D01*
X84263608Y-48795294D01*
X84236394Y-48795294D01*
X84203936Y-48791768D01*
X84203927Y-48791768D01*
X84200535Y-48791399D01*
X83799467Y-48791399D01*
X83796074Y-48791768D01*
X83796067Y-48791768D01*
X83763609Y-48795294D01*
X83736395Y-48795294D01*
X83703937Y-48791768D01*
X83703928Y-48791768D01*
X83700536Y-48791399D01*
X83299468Y-48791399D01*
X83263606Y-48795295D01*
X83236396Y-48795295D01*
X83200534Y-48791399D01*
X82799466Y-48791399D01*
X82796073Y-48791768D01*
X82796066Y-48791768D01*
X82763608Y-48795294D01*
X82736394Y-48795294D01*
X82703936Y-48791768D01*
X82703927Y-48791768D01*
X82700535Y-48791399D01*
X82299467Y-48791399D01*
X82263606Y-48795295D01*
X82236396Y-48795295D01*
X82200534Y-48791399D01*
X81799466Y-48791399D01*
X81796073Y-48791768D01*
X81796066Y-48791768D01*
X81763608Y-48795294D01*
X81736394Y-48795294D01*
X81703936Y-48791768D01*
X81703927Y-48791768D01*
X81700535Y-48791399D01*
X81299467Y-48791399D01*
X81296074Y-48791768D01*
X81296067Y-48791768D01*
X81263609Y-48795294D01*
X81236395Y-48795294D01*
X81203937Y-48791768D01*
X81203928Y-48791768D01*
X81200536Y-48791399D01*
X80799468Y-48791399D01*
X80763606Y-48795295D01*
X80736396Y-48795295D01*
X80700534Y-48791399D01*
X80299466Y-48791399D01*
X80237284Y-48798154D01*
X80100895Y-48849284D01*
X79984339Y-48936638D01*
X79896985Y-49053194D01*
X79845855Y-49189583D01*
X79839100Y-49251765D01*
X79839100Y-50948233D01*
X76816927Y-50948233D01*
X76803324Y-50911946D01*
X76794786Y-50896351D01*
X76718285Y-50794276D01*
X76705724Y-50781715D01*
X76603649Y-50705214D01*
X76588054Y-50696676D01*
X76467606Y-50651522D01*
X76452351Y-50647895D01*
X76401486Y-50642369D01*
X76394672Y-50642000D01*
X75772115Y-50642000D01*
X75756876Y-50646475D01*
X75755671Y-50647865D01*
X75754000Y-50655548D01*
X75754000Y-51727885D01*
X75246000Y-51727885D01*
X75246000Y-50660116D01*
X75241525Y-50644877D01*
X75240135Y-50643672D01*
X75232452Y-50642001D01*
X74605331Y-50642001D01*
X74598510Y-50642371D01*
X74547648Y-50647895D01*
X74532396Y-50651521D01*
X74411946Y-50696676D01*
X74396351Y-50705214D01*
X74294276Y-50781715D01*
X74281715Y-50794276D01*
X74205214Y-50896351D01*
X74196676Y-50911946D01*
X74151522Y-51032394D01*
X74147895Y-51047649D01*
X74142369Y-51098514D01*
X74142000Y-51105328D01*
X74142000Y-51727885D01*
X73508500Y-51727885D01*
X73508500Y-45134500D01*
X73528502Y-45066379D01*
X73582158Y-45019886D01*
X73634500Y-45008500D01*
X80051880Y-45008500D01*
X80120001Y-45028502D01*
G37*
%TD.AperFunction*%
%TD*%
M02*
