%TF.GenerationSoftware,KiCad,Pcbnew,(6.0.5)*%
%TF.CreationDate,2023-04-14T11:36:58+02:00*%
%TF.ProjectId,keyboardbreakout2_framework,6b657962-6f61-4726-9462-7265616b6f75,rev?*%
%TF.SameCoordinates,Original*%
%TF.FileFunction,Legend,Top*%
%TF.FilePolarity,Positive*%
%FSLAX46Y46*%
G04 Gerber Fmt 4.6, Leading zero omitted, Abs format (unit mm)*
G04 Created by KiCad (PCBNEW (6.0.5)) date 2023-04-14 11:36:58*
%MOMM*%
%LPD*%
G01*
G04 APERTURE LIST*
%ADD10C,0.250000*%
%ADD11C,0.150000*%
%ADD12C,0.120000*%
%ADD13R,1.700000X1.700000*%
%ADD14O,1.700000X1.700000*%
%ADD15R,0.304800X1.600200*%
G04 APERTURE END LIST*
D10*
X81642857Y-51952380D02*
X81166666Y-51952380D01*
X81119047Y-52428571D01*
X81166666Y-52380952D01*
X81261904Y-52333333D01*
X81500000Y-52333333D01*
X81595238Y-52380952D01*
X81642857Y-52428571D01*
X81690476Y-52523809D01*
X81690476Y-52761904D01*
X81642857Y-52857142D01*
X81595238Y-52904761D01*
X81500000Y-52952380D01*
X81261904Y-52952380D01*
X81166666Y-52904761D01*
X81119047Y-52857142D01*
X81976190Y-51952380D02*
X82309523Y-52952380D01*
X82642857Y-51952380D01*
X83738095Y-52571428D02*
X84500000Y-52571428D01*
X86500000Y-52571428D02*
X87261904Y-52571428D01*
X86880952Y-52952380D02*
X86880952Y-52190476D01*
X89785714Y-52000000D02*
X89690476Y-51952380D01*
X89547619Y-51952380D01*
X89404761Y-52000000D01*
X89309523Y-52095238D01*
X89261904Y-52190476D01*
X89214285Y-52380952D01*
X89214285Y-52523809D01*
X89261904Y-52714285D01*
X89309523Y-52809523D01*
X89404761Y-52904761D01*
X89547619Y-52952380D01*
X89642857Y-52952380D01*
X89785714Y-52904761D01*
X89833333Y-52857142D01*
X89833333Y-52523809D01*
X89642857Y-52523809D01*
X90261904Y-52952380D02*
X90261904Y-51952380D01*
X90833333Y-52952380D01*
X90833333Y-51952380D01*
X91309523Y-52952380D02*
X91309523Y-51952380D01*
X91547619Y-51952380D01*
X91690476Y-52000000D01*
X91785714Y-52095238D01*
X91833333Y-52190476D01*
X91880952Y-52380952D01*
X91880952Y-52523809D01*
X91833333Y-52714285D01*
X91785714Y-52809523D01*
X91690476Y-52904761D01*
X91547619Y-52952380D01*
X91309523Y-52952380D01*
D11*
%TO.C,JPWR1*%
X77452380Y-55404761D02*
X78166666Y-55404761D01*
X78309523Y-55452380D01*
X78404761Y-55547619D01*
X78452380Y-55690476D01*
X78452380Y-55785714D01*
X78452380Y-54928571D02*
X77452380Y-54928571D01*
X77452380Y-54547619D01*
X77500000Y-54452380D01*
X77547619Y-54404761D01*
X77642857Y-54357142D01*
X77785714Y-54357142D01*
X77880952Y-54404761D01*
X77928571Y-54452380D01*
X77976190Y-54547619D01*
X77976190Y-54928571D01*
X77452380Y-54023809D02*
X78452380Y-53785714D01*
X77738095Y-53595238D01*
X78452380Y-53404761D01*
X77452380Y-53166666D01*
X78452380Y-52214285D02*
X77976190Y-52547619D01*
X78452380Y-52785714D02*
X77452380Y-52785714D01*
X77452380Y-52404761D01*
X77500000Y-52309523D01*
X77547619Y-52261904D01*
X77642857Y-52214285D01*
X77785714Y-52214285D01*
X77880952Y-52261904D01*
X77928571Y-52309523D01*
X77976190Y-52404761D01*
X77976190Y-52785714D01*
X78452380Y-51261904D02*
X78452380Y-51833333D01*
X78452380Y-51547619D02*
X77452380Y-51547619D01*
X77595238Y-51642857D01*
X77690476Y-51738095D01*
X77738095Y-51833333D01*
%TO.C,JUSB1*%
X78952380Y-55333333D02*
X79666666Y-55333333D01*
X79809523Y-55380952D01*
X79904761Y-55476190D01*
X79952380Y-55619047D01*
X79952380Y-55714285D01*
X78952380Y-54857142D02*
X79761904Y-54857142D01*
X79857142Y-54809523D01*
X79904761Y-54761904D01*
X79952380Y-54666666D01*
X79952380Y-54476190D01*
X79904761Y-54380952D01*
X79857142Y-54333333D01*
X79761904Y-54285714D01*
X78952380Y-54285714D01*
X79904761Y-53857142D02*
X79952380Y-53714285D01*
X79952380Y-53476190D01*
X79904761Y-53380952D01*
X79857142Y-53333333D01*
X79761904Y-53285714D01*
X79666666Y-53285714D01*
X79571428Y-53333333D01*
X79523809Y-53380952D01*
X79476190Y-53476190D01*
X79428571Y-53666666D01*
X79380952Y-53761904D01*
X79333333Y-53809523D01*
X79238095Y-53857142D01*
X79142857Y-53857142D01*
X79047619Y-53809523D01*
X79000000Y-53761904D01*
X78952380Y-53666666D01*
X78952380Y-53428571D01*
X79000000Y-53285714D01*
X79428571Y-52523809D02*
X79476190Y-52380952D01*
X79523809Y-52333333D01*
X79619047Y-52285714D01*
X79761904Y-52285714D01*
X79857142Y-52333333D01*
X79904761Y-52380952D01*
X79952380Y-52476190D01*
X79952380Y-52857142D01*
X78952380Y-52857142D01*
X78952380Y-52523809D01*
X79000000Y-52428571D01*
X79047619Y-52380952D01*
X79142857Y-52333333D01*
X79238095Y-52333333D01*
X79333333Y-52380952D01*
X79380952Y-52428571D01*
X79428571Y-52523809D01*
X79428571Y-52857142D01*
X79952380Y-51333333D02*
X79952380Y-51904761D01*
X79952380Y-51619047D02*
X78952380Y-51619047D01*
X79095238Y-51714285D01*
X79190476Y-51809523D01*
X79238095Y-51904761D01*
D12*
%TO.C,JPWR1*%
X75500000Y-50670000D02*
X76830000Y-50670000D01*
X76830000Y-53270000D02*
X76830000Y-55870000D01*
X76830000Y-50670000D02*
X76830000Y-52000000D01*
X74170000Y-53270000D02*
X76830000Y-53270000D01*
X74170000Y-53270000D02*
X74170000Y-55870000D01*
X74170000Y-55870000D02*
X76830000Y-55870000D01*
%TO.C,JUSB1*%
X82770000Y-55855000D02*
X82770000Y-53195000D01*
X82770000Y-53195000D02*
X92990000Y-53195000D01*
X82770000Y-55855000D02*
X92990000Y-55855000D01*
X80170000Y-53195000D02*
X81500000Y-53195000D01*
X80170000Y-54525000D02*
X80170000Y-53195000D01*
X92990000Y-55855000D02*
X92990000Y-53195000D01*
%TO.C,U1*%
X92985142Y-50268500D02*
X93802501Y-50268500D01*
X93802501Y-46331500D02*
X92985142Y-46331500D01*
X79197501Y-46331500D02*
X79197501Y-50268500D01*
X79197501Y-50268500D02*
X80014860Y-50268500D01*
X93802501Y-50268500D02*
X93802501Y-46331500D01*
X80014860Y-46331500D02*
X79197501Y-46331500D01*
X77800501Y-46500000D02*
G75*
G03*
X77800501Y-46500000I-381000J0D01*
G01*
%TD*%
%LPC*%
D13*
%TO.C,JPWR1*%
X75500000Y-52000000D03*
D14*
X75500000Y-54540000D03*
%TD*%
D13*
%TO.C,JUSB1*%
X81500000Y-54525000D03*
D14*
X84040000Y-54525000D03*
X86580000Y-54525000D03*
X89120000Y-54525000D03*
X91660000Y-54525000D03*
%TD*%
D15*
%TO.C,U1*%
X80500000Y-46500001D03*
X81000002Y-46500001D03*
X81500001Y-46500001D03*
X82000000Y-46500001D03*
X82500001Y-46500001D03*
X83000000Y-46500001D03*
X83500002Y-46500001D03*
X84000001Y-46500001D03*
X84500000Y-46500001D03*
X85000001Y-46500001D03*
X85500000Y-46500001D03*
X86000002Y-46500001D03*
X86500001Y-46500001D03*
X87000000Y-46500001D03*
X87500001Y-46500001D03*
X88000000Y-46500001D03*
X88500002Y-46500001D03*
X89000001Y-46500001D03*
X89500000Y-46500001D03*
X90000001Y-46500001D03*
X90500000Y-46500001D03*
X91000002Y-46500001D03*
X91500001Y-46500001D03*
X92000000Y-46500001D03*
X92500002Y-46500001D03*
X92500002Y-50099999D03*
X92000000Y-50099999D03*
X91500001Y-50099999D03*
X91000002Y-50099999D03*
X90500000Y-50099999D03*
X90000001Y-50099999D03*
X89500000Y-50099999D03*
X89000001Y-50099999D03*
X88500002Y-50099999D03*
X88000000Y-50099999D03*
X87500001Y-50099999D03*
X87000000Y-50099999D03*
X86500001Y-50099999D03*
X86000002Y-50099999D03*
X85500000Y-50099999D03*
X85000001Y-50099999D03*
X84500000Y-50099999D03*
X84000001Y-50099999D03*
X83500002Y-50099999D03*
X83000000Y-50099999D03*
X82500001Y-50099999D03*
X82000000Y-50099999D03*
X81500001Y-50099999D03*
X81000002Y-50099999D03*
X80500000Y-50099999D03*
%TD*%
M02*
