%TF.GenerationSoftware,KiCad,Pcbnew,(6.0.5)*%
%TF.CreationDate,2023-04-14T11:36:58+02:00*%
%TF.ProjectId,keyboardbreakout2_framework,6b657962-6f61-4726-9462-7265616b6f75,rev?*%
%TF.SameCoordinates,Original*%
%TF.FileFunction,Other,Comment*%
%FSLAX46Y46*%
G04 Gerber Fmt 4.6, Leading zero omitted, Abs format (unit mm)*
G04 Created by KiCad (PCBNEW (6.0.5)) date 2023-04-14 11:36:58*
%MOMM*%
%LPD*%
G01*
G04 APERTURE LIST*
%ADD10C,0.100000*%
G04 APERTURE END LIST*
D10*
%TO.C,U1*%
X80999999Y-41000902D02*
X81253999Y-41127902D01*
X80500000Y-46500000D02*
X96596501Y-46500000D01*
X96088501Y-50354000D02*
X96342501Y-50354000D01*
X70053501Y-46204500D02*
X70307501Y-46204500D01*
X70053501Y-50395500D02*
X70307501Y-50395500D01*
X79324501Y-46458500D02*
X79324501Y-34904902D01*
X93421501Y-35158902D02*
X93421501Y-35412902D01*
X80500000Y-41000902D02*
X80246000Y-41127902D01*
X79324501Y-35285902D02*
X79578501Y-35158902D01*
X96215501Y-46500000D02*
X96088501Y-46246000D01*
X96215501Y-50100000D02*
X96215501Y-51370000D01*
X96215501Y-50100000D02*
X96342501Y-50354000D01*
X70180501Y-46458500D02*
X70180501Y-45188500D01*
X79324501Y-46458500D02*
X68529501Y-46458500D01*
X68783501Y-46204500D02*
X69037501Y-46204500D01*
X70180501Y-50141500D02*
X70053501Y-50395500D01*
X68910501Y-46458500D02*
X68910501Y-45188500D01*
X70180501Y-50141500D02*
X70307501Y-50395500D01*
X68783501Y-48554000D02*
X69037501Y-48554000D01*
X79324501Y-35285902D02*
X79578501Y-35412902D01*
X70180501Y-50141500D02*
X70180501Y-51411500D01*
X70180501Y-46458500D02*
X70307501Y-46204500D01*
X81253999Y-40873902D02*
X81253999Y-41127902D01*
X93675501Y-46458500D02*
X93675501Y-34904902D01*
X93675501Y-35285902D02*
X93421501Y-35412902D01*
X79578501Y-35158902D02*
X79578501Y-35412902D01*
X86500001Y-48300000D02*
X68529501Y-48300000D01*
X80246000Y-40873902D02*
X80246000Y-41127902D01*
X96215501Y-46500000D02*
X96342501Y-46246000D01*
X96215501Y-46500000D02*
X96215501Y-45230000D01*
X80500000Y-41000902D02*
X79230000Y-41000902D01*
X80500000Y-50100000D02*
X96596501Y-50100000D01*
X68910501Y-48300000D02*
X68783501Y-48554000D01*
X68910501Y-46458500D02*
X69037501Y-46204500D01*
X80500000Y-46500000D02*
X80500000Y-40619902D01*
X68910501Y-46458500D02*
X68783501Y-46204500D01*
X96088501Y-46246000D02*
X96342501Y-46246000D01*
X96215501Y-50100000D02*
X96088501Y-50354000D01*
X68910501Y-48300000D02*
X68910501Y-49570000D01*
X79324501Y-35285902D02*
X93675501Y-35285902D01*
X80500000Y-41000902D02*
X80246000Y-40873902D01*
X79324501Y-46458500D02*
X69799501Y-46458500D01*
X79324501Y-50141500D02*
X69799501Y-50141500D01*
X68910501Y-48300000D02*
X69037501Y-48554000D01*
X70180501Y-46458500D02*
X70053501Y-46204500D01*
X80999999Y-41000902D02*
X82269999Y-41000902D01*
X93675501Y-35285902D02*
X93421501Y-35158902D01*
X80999999Y-41000902D02*
X81253999Y-40873902D01*
X80999999Y-46500000D02*
X80999999Y-40619902D01*
%TD*%
M02*
